<?xml version="1.0" encoding="utf-8" standalone="no"?>
<!DOCTYPE svg PUBLIC "-//W3C//DTD SVG 1.1//EN"
  "http://www.w3.org/Graphics/SVG/1.1/DTD/svg11.dtd">
<svg xmlns:xlink="http://www.w3.org/1999/xlink" width="418.335pt" height="314.7395pt" viewBox="0 0 418.335 314.7395" xmlns="http://www.w3.org/2000/svg" version="1.1">
 <metadata>
  <rdf:RDF xmlns:dc="http://purl.org/dc/elements/1.1/" xmlns:cc="http://creativecommons.org/ns#" xmlns:rdf="http://www.w3.org/1999/02/22-rdf-syntax-ns#">
   <cc:Work>
    <dc:type rdf:resource="http://purl.org/dc/dcmitype/StillImage"/>
    <dc:date>2023-10-10T13:23:48.874080</dc:date>
    <dc:format>image/svg+xml</dc:format>
    <dc:creator>
     <cc:Agent>
      <dc:title>Matplotlib v3.7.2, https://matplotlib.org/</dc:title>
     </cc:Agent>
    </dc:creator>
   </cc:Work>
  </rdf:RDF>
 </metadata>
 <defs>
  <style type="text/css">*{stroke-linejoin: round; stroke-linecap: butt}</style>
 </defs>
 <g id="figure_1">
  <g id="patch_1">
   <path d="M 0 314.7395 
L 418.335 314.7395 
L 418.335 0 
L 0 0 
z
" style="fill: #ffffff"/>
  </g>
  <g id="axes_1">
   <g id="patch_2">
    <path d="M 54.015 273.312 
L 411.135 273.312 
L 411.135 7.2 
L 54.015 7.2 
z
" style="fill: #ffffff"/>
   </g>
   <g id="matplotlib.axis_1">
    <g id="xtick_1">
     <g id="line2d_1">
      <defs>
       <path id="mc6604a61f0" d="M 0 0 
L 0 3.5 
" style="stroke: #000000; stroke-width: 0.8"/>
      </defs>
      <g>
       <use xlink:href="#mc6604a61f0" x="110.541274" y="273.312" style="stroke: #000000; stroke-width: 0.8"/>
      </g>
     </g>
     <g id="text_1">
      <!-- 1.4 -->
      <g transform="translate(102.589711 287.910438) scale(0.1 -0.1)">
       <defs>
        <path id="DejaVuSans-31" d="M 794 531 
L 1825 531 
L 1825 4091 
L 703 3866 
L 703 4441 
L 1819 4666 
L 2450 4666 
L 2450 531 
L 3481 531 
L 3481 0 
L 794 0 
L 794 531 
z
" transform="scale(0.015625)"/>
        <path id="DejaVuSans-2e" d="M 684 794 
L 1344 794 
L 1344 0 
L 684 0 
L 684 794 
z
" transform="scale(0.015625)"/>
        <path id="DejaVuSans-34" d="M 2419 4116 
L 825 1625 
L 2419 1625 
L 2419 4116 
z
M 2253 4666 
L 3047 4666 
L 3047 1625 
L 3713 1625 
L 3713 1100 
L 3047 1100 
L 3047 0 
L 2419 0 
L 2419 1100 
L 313 1100 
L 313 1709 
L 2253 4666 
z
" transform="scale(0.015625)"/>
       </defs>
       <use xlink:href="#DejaVuSans-31"/>
       <use xlink:href="#DejaVuSans-2e" x="63.623047"/>
       <use xlink:href="#DejaVuSans-34" x="95.410156"/>
      </g>
     </g>
    </g>
    <g id="xtick_2">
     <g id="line2d_2">
      <g>
       <use xlink:href="#mc6604a61f0" x="174.675418" y="273.312" style="stroke: #000000; stroke-width: 0.8"/>
      </g>
     </g>
     <g id="text_2">
      <!-- 1.5 -->
      <g transform="translate(166.723856 287.910438) scale(0.1 -0.1)">
       <defs>
        <path id="DejaVuSans-35" d="M 691 4666 
L 3169 4666 
L 3169 4134 
L 1269 4134 
L 1269 2991 
Q 1406 3038 1543 3061 
Q 1681 3084 1819 3084 
Q 2600 3084 3056 2656 
Q 3513 2228 3513 1497 
Q 3513 744 3044 326 
Q 2575 -91 1722 -91 
Q 1428 -91 1123 -41 
Q 819 9 494 109 
L 494 744 
Q 775 591 1075 516 
Q 1375 441 1709 441 
Q 2250 441 2565 725 
Q 2881 1009 2881 1497 
Q 2881 1984 2565 2268 
Q 2250 2553 1709 2553 
Q 1456 2553 1204 2497 
Q 953 2441 691 2322 
L 691 4666 
z
" transform="scale(0.015625)"/>
       </defs>
       <use xlink:href="#DejaVuSans-31"/>
       <use xlink:href="#DejaVuSans-2e" x="63.623047"/>
       <use xlink:href="#DejaVuSans-35" x="95.410156"/>
      </g>
     </g>
    </g>
    <g id="xtick_3">
     <g id="line2d_3">
      <g>
       <use xlink:href="#mc6604a61f0" x="238.809562" y="273.312" style="stroke: #000000; stroke-width: 0.8"/>
      </g>
     </g>
     <g id="text_3">
      <!-- 1.6 -->
      <g transform="translate(230.858 287.910438) scale(0.1 -0.1)">
       <defs>
        <path id="DejaVuSans-36" d="M 2113 2584 
Q 1688 2584 1439 2293 
Q 1191 2003 1191 1497 
Q 1191 994 1439 701 
Q 1688 409 2113 409 
Q 2538 409 2786 701 
Q 3034 994 3034 1497 
Q 3034 2003 2786 2293 
Q 2538 2584 2113 2584 
z
M 3366 4563 
L 3366 3988 
Q 3128 4100 2886 4159 
Q 2644 4219 2406 4219 
Q 1781 4219 1451 3797 
Q 1122 3375 1075 2522 
Q 1259 2794 1537 2939 
Q 1816 3084 2150 3084 
Q 2853 3084 3261 2657 
Q 3669 2231 3669 1497 
Q 3669 778 3244 343 
Q 2819 -91 2113 -91 
Q 1303 -91 875 529 
Q 447 1150 447 2328 
Q 447 3434 972 4092 
Q 1497 4750 2381 4750 
Q 2619 4750 2861 4703 
Q 3103 4656 3366 4563 
z
" transform="scale(0.015625)"/>
       </defs>
       <use xlink:href="#DejaVuSans-31"/>
       <use xlink:href="#DejaVuSans-2e" x="63.623047"/>
       <use xlink:href="#DejaVuSans-36" x="95.410156"/>
      </g>
     </g>
    </g>
    <g id="xtick_4">
     <g id="line2d_4">
      <g>
       <use xlink:href="#mc6604a61f0" x="302.943707" y="273.312" style="stroke: #000000; stroke-width: 0.8"/>
      </g>
     </g>
     <g id="text_4">
      <!-- 1.7 -->
      <g transform="translate(294.992144 287.910438) scale(0.1 -0.1)">
       <defs>
        <path id="DejaVuSans-37" d="M 525 4666 
L 3525 4666 
L 3525 4397 
L 1831 0 
L 1172 0 
L 2766 4134 
L 525 4134 
L 525 4666 
z
" transform="scale(0.015625)"/>
       </defs>
       <use xlink:href="#DejaVuSans-31"/>
       <use xlink:href="#DejaVuSans-2e" x="63.623047"/>
       <use xlink:href="#DejaVuSans-37" x="95.410156"/>
      </g>
     </g>
    </g>
    <g id="xtick_5">
     <g id="line2d_5">
      <g>
       <use xlink:href="#mc6604a61f0" x="367.077851" y="273.312" style="stroke: #000000; stroke-width: 0.8"/>
      </g>
     </g>
     <g id="text_5">
      <!-- 1.8 -->
      <g transform="translate(359.126289 287.910438) scale(0.1 -0.1)">
       <defs>
        <path id="DejaVuSans-38" d="M 2034 2216 
Q 1584 2216 1326 1975 
Q 1069 1734 1069 1313 
Q 1069 891 1326 650 
Q 1584 409 2034 409 
Q 2484 409 2743 651 
Q 3003 894 3003 1313 
Q 3003 1734 2745 1975 
Q 2488 2216 2034 2216 
z
M 1403 2484 
Q 997 2584 770 2862 
Q 544 3141 544 3541 
Q 544 4100 942 4425 
Q 1341 4750 2034 4750 
Q 2731 4750 3128 4425 
Q 3525 4100 3525 3541 
Q 3525 3141 3298 2862 
Q 3072 2584 2669 2484 
Q 3125 2378 3379 2068 
Q 3634 1759 3634 1313 
Q 3634 634 3220 271 
Q 2806 -91 2034 -91 
Q 1263 -91 848 271 
Q 434 634 434 1313 
Q 434 1759 690 2068 
Q 947 2378 1403 2484 
z
M 1172 3481 
Q 1172 3119 1398 2916 
Q 1625 2713 2034 2713 
Q 2441 2713 2670 2916 
Q 2900 3119 2900 3481 
Q 2900 3844 2670 4047 
Q 2441 4250 2034 4250 
Q 1625 4250 1398 4047 
Q 1172 3844 1172 3481 
z
" transform="scale(0.015625)"/>
       </defs>
       <use xlink:href="#DejaVuSans-31"/>
       <use xlink:href="#DejaVuSans-2e" x="63.623047"/>
       <use xlink:href="#DejaVuSans-38" x="95.410156"/>
      </g>
     </g>
    </g>
    <g id="text_6">
     <!-- Energy [J] -->
     <g transform="translate(198.314375 304.627938) scale(0.14 -0.14)">
      <defs>
       <path id="DejaVuSans-45" d="M 628 4666 
L 3578 4666 
L 3578 4134 
L 1259 4134 
L 1259 2753 
L 3481 2753 
L 3481 2222 
L 1259 2222 
L 1259 531 
L 3634 531 
L 3634 0 
L 628 0 
L 628 4666 
z
" transform="scale(0.015625)"/>
       <path id="DejaVuSans-6e" d="M 3513 2113 
L 3513 0 
L 2938 0 
L 2938 2094 
Q 2938 2591 2744 2837 
Q 2550 3084 2163 3084 
Q 1697 3084 1428 2787 
Q 1159 2491 1159 1978 
L 1159 0 
L 581 0 
L 581 3500 
L 1159 3500 
L 1159 2956 
Q 1366 3272 1645 3428 
Q 1925 3584 2291 3584 
Q 2894 3584 3203 3211 
Q 3513 2838 3513 2113 
z
" transform="scale(0.015625)"/>
       <path id="DejaVuSans-65" d="M 3597 1894 
L 3597 1613 
L 953 1613 
Q 991 1019 1311 708 
Q 1631 397 2203 397 
Q 2534 397 2845 478 
Q 3156 559 3463 722 
L 3463 178 
Q 3153 47 2828 -22 
Q 2503 -91 2169 -91 
Q 1331 -91 842 396 
Q 353 884 353 1716 
Q 353 2575 817 3079 
Q 1281 3584 2069 3584 
Q 2775 3584 3186 3129 
Q 3597 2675 3597 1894 
z
M 3022 2063 
Q 3016 2534 2758 2815 
Q 2500 3097 2075 3097 
Q 1594 3097 1305 2825 
Q 1016 2553 972 2059 
L 3022 2063 
z
" transform="scale(0.015625)"/>
       <path id="DejaVuSans-72" d="M 2631 2963 
Q 2534 3019 2420 3045 
Q 2306 3072 2169 3072 
Q 1681 3072 1420 2755 
Q 1159 2438 1159 1844 
L 1159 0 
L 581 0 
L 581 3500 
L 1159 3500 
L 1159 2956 
Q 1341 3275 1631 3429 
Q 1922 3584 2338 3584 
Q 2397 3584 2469 3576 
Q 2541 3569 2628 3553 
L 2631 2963 
z
" transform="scale(0.015625)"/>
       <path id="DejaVuSans-67" d="M 2906 1791 
Q 2906 2416 2648 2759 
Q 2391 3103 1925 3103 
Q 1463 3103 1205 2759 
Q 947 2416 947 1791 
Q 947 1169 1205 825 
Q 1463 481 1925 481 
Q 2391 481 2648 825 
Q 2906 1169 2906 1791 
z
M 3481 434 
Q 3481 -459 3084 -895 
Q 2688 -1331 1869 -1331 
Q 1566 -1331 1297 -1286 
Q 1028 -1241 775 -1147 
L 775 -588 
Q 1028 -725 1275 -790 
Q 1522 -856 1778 -856 
Q 2344 -856 2625 -561 
Q 2906 -266 2906 331 
L 2906 616 
Q 2728 306 2450 153 
Q 2172 0 1784 0 
Q 1141 0 747 490 
Q 353 981 353 1791 
Q 353 2603 747 3093 
Q 1141 3584 1784 3584 
Q 2172 3584 2450 3431 
Q 2728 3278 2906 2969 
L 2906 3500 
L 3481 3500 
L 3481 434 
z
" transform="scale(0.015625)"/>
       <path id="DejaVuSans-79" d="M 2059 -325 
Q 1816 -950 1584 -1140 
Q 1353 -1331 966 -1331 
L 506 -1331 
L 506 -850 
L 844 -850 
Q 1081 -850 1212 -737 
Q 1344 -625 1503 -206 
L 1606 56 
L 191 3500 
L 800 3500 
L 1894 763 
L 2988 3500 
L 3597 3500 
L 2059 -325 
z
" transform="scale(0.015625)"/>
       <path id="DejaVuSans-20" transform="scale(0.015625)"/>
       <path id="DejaVuSans-5b" d="M 550 4863 
L 1875 4863 
L 1875 4416 
L 1125 4416 
L 1125 -397 
L 1875 -397 
L 1875 -844 
L 550 -844 
L 550 4863 
z
" transform="scale(0.015625)"/>
       <path id="DejaVuSans-4a" d="M 628 4666 
L 1259 4666 
L 1259 325 
Q 1259 -519 939 -900 
Q 619 -1281 -91 -1281 
L -331 -1281 
L -331 -750 
L -134 -750 
Q 284 -750 456 -515 
Q 628 -281 628 325 
L 628 4666 
z
" transform="scale(0.015625)"/>
       <path id="DejaVuSans-5d" d="M 1947 4863 
L 1947 -844 
L 622 -844 
L 622 -397 
L 1369 -397 
L 1369 4416 
L 622 4416 
L 622 4863 
L 1947 4863 
z
" transform="scale(0.015625)"/>
      </defs>
      <use xlink:href="#DejaVuSans-45"/>
      <use xlink:href="#DejaVuSans-6e" x="63.183594"/>
      <use xlink:href="#DejaVuSans-65" x="126.5625"/>
      <use xlink:href="#DejaVuSans-72" x="188.085938"/>
      <use xlink:href="#DejaVuSans-67" x="227.449219"/>
      <use xlink:href="#DejaVuSans-79" x="290.925781"/>
      <use xlink:href="#DejaVuSans-20" x="350.105469"/>
      <use xlink:href="#DejaVuSans-5b" x="381.892578"/>
      <use xlink:href="#DejaVuSans-4a" x="420.90625"/>
      <use xlink:href="#DejaVuSans-5d" x="450.398438"/>
     </g>
    </g>
   </g>
   <g id="matplotlib.axis_2">
    <g id="ytick_1">
     <g id="line2d_6">
      <defs>
       <path id="m5bd3af8a4b" d="M 0 0 
L -3.5 0 
" style="stroke: #000000; stroke-width: 0.8"/>
      </defs>
      <g>
       <use xlink:href="#m5bd3af8a4b" x="54.015" y="260.069755" style="stroke: #000000; stroke-width: 0.8"/>
      </g>
     </g>
     <g id="text_7">
      <!-- 1.20 -->
      <g transform="translate(24.749375 263.868974) scale(0.1 -0.1)">
       <defs>
        <path id="DejaVuSans-32" d="M 1228 531 
L 3431 531 
L 3431 0 
L 469 0 
L 469 531 
Q 828 903 1448 1529 
Q 2069 2156 2228 2338 
Q 2531 2678 2651 2914 
Q 2772 3150 2772 3378 
Q 2772 3750 2511 3984 
Q 2250 4219 1831 4219 
Q 1534 4219 1204 4116 
Q 875 4013 500 3803 
L 500 4441 
Q 881 4594 1212 4672 
Q 1544 4750 1819 4750 
Q 2544 4750 2975 4387 
Q 3406 4025 3406 3419 
Q 3406 3131 3298 2873 
Q 3191 2616 2906 2266 
Q 2828 2175 2409 1742 
Q 1991 1309 1228 531 
z
" transform="scale(0.015625)"/>
        <path id="DejaVuSans-30" d="M 2034 4250 
Q 1547 4250 1301 3770 
Q 1056 3291 1056 2328 
Q 1056 1369 1301 889 
Q 1547 409 2034 409 
Q 2525 409 2770 889 
Q 3016 1369 3016 2328 
Q 3016 3291 2770 3770 
Q 2525 4250 2034 4250 
z
M 2034 4750 
Q 2819 4750 3233 4129 
Q 3647 3509 3647 2328 
Q 3647 1150 3233 529 
Q 2819 -91 2034 -91 
Q 1250 -91 836 529 
Q 422 1150 422 2328 
Q 422 3509 836 4129 
Q 1250 4750 2034 4750 
z
" transform="scale(0.015625)"/>
       </defs>
       <use xlink:href="#DejaVuSans-31"/>
       <use xlink:href="#DejaVuSans-2e" x="63.623047"/>
       <use xlink:href="#DejaVuSans-32" x="95.410156"/>
       <use xlink:href="#DejaVuSans-30" x="159.033203"/>
      </g>
     </g>
    </g>
    <g id="ytick_2">
     <g id="line2d_7">
      <g>
       <use xlink:href="#m5bd3af8a4b" x="54.015" y="208.085871" style="stroke: #000000; stroke-width: 0.8"/>
      </g>
     </g>
     <g id="text_8">
      <!-- 1.22 -->
      <g transform="translate(24.749375 211.88509) scale(0.1 -0.1)">
       <use xlink:href="#DejaVuSans-31"/>
       <use xlink:href="#DejaVuSans-2e" x="63.623047"/>
       <use xlink:href="#DejaVuSans-32" x="95.410156"/>
       <use xlink:href="#DejaVuSans-32" x="159.033203"/>
      </g>
     </g>
    </g>
    <g id="ytick_3">
     <g id="line2d_8">
      <g>
       <use xlink:href="#m5bd3af8a4b" x="54.015" y="156.101987" style="stroke: #000000; stroke-width: 0.8"/>
      </g>
     </g>
     <g id="text_9">
      <!-- 1.24 -->
      <g transform="translate(24.749375 159.901206) scale(0.1 -0.1)">
       <use xlink:href="#DejaVuSans-31"/>
       <use xlink:href="#DejaVuSans-2e" x="63.623047"/>
       <use xlink:href="#DejaVuSans-32" x="95.410156"/>
       <use xlink:href="#DejaVuSans-34" x="159.033203"/>
      </g>
     </g>
    </g>
    <g id="ytick_4">
     <g id="line2d_9">
      <g>
       <use xlink:href="#m5bd3af8a4b" x="54.015" y="104.118103" style="stroke: #000000; stroke-width: 0.8"/>
      </g>
     </g>
     <g id="text_10">
      <!-- 1.26 -->
      <g transform="translate(24.749375 107.917322) scale(0.1 -0.1)">
       <use xlink:href="#DejaVuSans-31"/>
       <use xlink:href="#DejaVuSans-2e" x="63.623047"/>
       <use xlink:href="#DejaVuSans-32" x="95.410156"/>
       <use xlink:href="#DejaVuSans-36" x="159.033203"/>
      </g>
     </g>
    </g>
    <g id="ytick_5">
     <g id="line2d_10">
      <g>
       <use xlink:href="#m5bd3af8a4b" x="54.015" y="52.13422" style="stroke: #000000; stroke-width: 0.8"/>
      </g>
     </g>
     <g id="text_11">
      <!-- 1.28 -->
      <g transform="translate(24.749375 55.933438) scale(0.1 -0.1)">
       <use xlink:href="#DejaVuSans-31"/>
       <use xlink:href="#DejaVuSans-2e" x="63.623047"/>
       <use xlink:href="#DejaVuSans-32" x="95.410156"/>
       <use xlink:href="#DejaVuSans-38" x="159.033203"/>
      </g>
     </g>
    </g>
    <g id="text_12">
     <!-- CPI (Cycles Per Instruction) -->
     <g transform="translate(17.837813 234.959438) rotate(-90) scale(0.14 -0.14)">
      <defs>
       <path id="DejaVuSans-43" d="M 4122 4306 
L 4122 3641 
Q 3803 3938 3442 4084 
Q 3081 4231 2675 4231 
Q 1875 4231 1450 3742 
Q 1025 3253 1025 2328 
Q 1025 1406 1450 917 
Q 1875 428 2675 428 
Q 3081 428 3442 575 
Q 3803 722 4122 1019 
L 4122 359 
Q 3791 134 3420 21 
Q 3050 -91 2638 -91 
Q 1578 -91 968 557 
Q 359 1206 359 2328 
Q 359 3453 968 4101 
Q 1578 4750 2638 4750 
Q 3056 4750 3426 4639 
Q 3797 4528 4122 4306 
z
" transform="scale(0.015625)"/>
       <path id="DejaVuSans-50" d="M 1259 4147 
L 1259 2394 
L 2053 2394 
Q 2494 2394 2734 2622 
Q 2975 2850 2975 3272 
Q 2975 3691 2734 3919 
Q 2494 4147 2053 4147 
L 1259 4147 
z
M 628 4666 
L 2053 4666 
Q 2838 4666 3239 4311 
Q 3641 3956 3641 3272 
Q 3641 2581 3239 2228 
Q 2838 1875 2053 1875 
L 1259 1875 
L 1259 0 
L 628 0 
L 628 4666 
z
" transform="scale(0.015625)"/>
       <path id="DejaVuSans-49" d="M 628 4666 
L 1259 4666 
L 1259 0 
L 628 0 
L 628 4666 
z
" transform="scale(0.015625)"/>
       <path id="DejaVuSans-28" d="M 1984 4856 
Q 1566 4138 1362 3434 
Q 1159 2731 1159 2009 
Q 1159 1288 1364 580 
Q 1569 -128 1984 -844 
L 1484 -844 
Q 1016 -109 783 600 
Q 550 1309 550 2009 
Q 550 2706 781 3412 
Q 1013 4119 1484 4856 
L 1984 4856 
z
" transform="scale(0.015625)"/>
       <path id="DejaVuSans-63" d="M 3122 3366 
L 3122 2828 
Q 2878 2963 2633 3030 
Q 2388 3097 2138 3097 
Q 1578 3097 1268 2742 
Q 959 2388 959 1747 
Q 959 1106 1268 751 
Q 1578 397 2138 397 
Q 2388 397 2633 464 
Q 2878 531 3122 666 
L 3122 134 
Q 2881 22 2623 -34 
Q 2366 -91 2075 -91 
Q 1284 -91 818 406 
Q 353 903 353 1747 
Q 353 2603 823 3093 
Q 1294 3584 2113 3584 
Q 2378 3584 2631 3529 
Q 2884 3475 3122 3366 
z
" transform="scale(0.015625)"/>
       <path id="DejaVuSans-6c" d="M 603 4863 
L 1178 4863 
L 1178 0 
L 603 0 
L 603 4863 
z
" transform="scale(0.015625)"/>
       <path id="DejaVuSans-73" d="M 2834 3397 
L 2834 2853 
Q 2591 2978 2328 3040 
Q 2066 3103 1784 3103 
Q 1356 3103 1142 2972 
Q 928 2841 928 2578 
Q 928 2378 1081 2264 
Q 1234 2150 1697 2047 
L 1894 2003 
Q 2506 1872 2764 1633 
Q 3022 1394 3022 966 
Q 3022 478 2636 193 
Q 2250 -91 1575 -91 
Q 1294 -91 989 -36 
Q 684 19 347 128 
L 347 722 
Q 666 556 975 473 
Q 1284 391 1588 391 
Q 1994 391 2212 530 
Q 2431 669 2431 922 
Q 2431 1156 2273 1281 
Q 2116 1406 1581 1522 
L 1381 1569 
Q 847 1681 609 1914 
Q 372 2147 372 2553 
Q 372 3047 722 3315 
Q 1072 3584 1716 3584 
Q 2034 3584 2315 3537 
Q 2597 3491 2834 3397 
z
" transform="scale(0.015625)"/>
       <path id="DejaVuSans-74" d="M 1172 4494 
L 1172 3500 
L 2356 3500 
L 2356 3053 
L 1172 3053 
L 1172 1153 
Q 1172 725 1289 603 
Q 1406 481 1766 481 
L 2356 481 
L 2356 0 
L 1766 0 
Q 1100 0 847 248 
Q 594 497 594 1153 
L 594 3053 
L 172 3053 
L 172 3500 
L 594 3500 
L 594 4494 
L 1172 4494 
z
" transform="scale(0.015625)"/>
       <path id="DejaVuSans-75" d="M 544 1381 
L 544 3500 
L 1119 3500 
L 1119 1403 
Q 1119 906 1312 657 
Q 1506 409 1894 409 
Q 2359 409 2629 706 
Q 2900 1003 2900 1516 
L 2900 3500 
L 3475 3500 
L 3475 0 
L 2900 0 
L 2900 538 
Q 2691 219 2414 64 
Q 2138 -91 1772 -91 
Q 1169 -91 856 284 
Q 544 659 544 1381 
z
M 1991 3584 
L 1991 3584 
z
" transform="scale(0.015625)"/>
       <path id="DejaVuSans-69" d="M 603 3500 
L 1178 3500 
L 1178 0 
L 603 0 
L 603 3500 
z
M 603 4863 
L 1178 4863 
L 1178 4134 
L 603 4134 
L 603 4863 
z
" transform="scale(0.015625)"/>
       <path id="DejaVuSans-6f" d="M 1959 3097 
Q 1497 3097 1228 2736 
Q 959 2375 959 1747 
Q 959 1119 1226 758 
Q 1494 397 1959 397 
Q 2419 397 2687 759 
Q 2956 1122 2956 1747 
Q 2956 2369 2687 2733 
Q 2419 3097 1959 3097 
z
M 1959 3584 
Q 2709 3584 3137 3096 
Q 3566 2609 3566 1747 
Q 3566 888 3137 398 
Q 2709 -91 1959 -91 
Q 1206 -91 779 398 
Q 353 888 353 1747 
Q 353 2609 779 3096 
Q 1206 3584 1959 3584 
z
" transform="scale(0.015625)"/>
       <path id="DejaVuSans-29" d="M 513 4856 
L 1013 4856 
Q 1481 4119 1714 3412 
Q 1947 2706 1947 2009 
Q 1947 1309 1714 600 
Q 1481 -109 1013 -844 
L 513 -844 
Q 928 -128 1133 580 
Q 1338 1288 1338 2009 
Q 1338 2731 1133 3434 
Q 928 4138 513 4856 
z
" transform="scale(0.015625)"/>
      </defs>
      <use xlink:href="#DejaVuSans-43"/>
      <use xlink:href="#DejaVuSans-50" x="69.824219"/>
      <use xlink:href="#DejaVuSans-49" x="130.126953"/>
      <use xlink:href="#DejaVuSans-20" x="159.619141"/>
      <use xlink:href="#DejaVuSans-28" x="191.40625"/>
      <use xlink:href="#DejaVuSans-43" x="230.419922"/>
      <use xlink:href="#DejaVuSans-79" x="300.244141"/>
      <use xlink:href="#DejaVuSans-63" x="359.423828"/>
      <use xlink:href="#DejaVuSans-6c" x="414.404297"/>
      <use xlink:href="#DejaVuSans-65" x="442.1875"/>
      <use xlink:href="#DejaVuSans-73" x="503.710938"/>
      <use xlink:href="#DejaVuSans-20" x="555.810547"/>
      <use xlink:href="#DejaVuSans-50" x="587.597656"/>
      <use xlink:href="#DejaVuSans-65" x="644.275391"/>
      <use xlink:href="#DejaVuSans-72" x="705.798828"/>
      <use xlink:href="#DejaVuSans-20" x="746.912109"/>
      <use xlink:href="#DejaVuSans-49" x="778.699219"/>
      <use xlink:href="#DejaVuSans-6e" x="808.191406"/>
      <use xlink:href="#DejaVuSans-73" x="871.570312"/>
      <use xlink:href="#DejaVuSans-74" x="923.669922"/>
      <use xlink:href="#DejaVuSans-72" x="962.878906"/>
      <use xlink:href="#DejaVuSans-75" x="1003.992188"/>
      <use xlink:href="#DejaVuSans-63" x="1067.371094"/>
      <use xlink:href="#DejaVuSans-74" x="1122.351562"/>
      <use xlink:href="#DejaVuSans-69" x="1161.560547"/>
      <use xlink:href="#DejaVuSans-6f" x="1189.34375"/>
      <use xlink:href="#DejaVuSans-6e" x="1250.525391"/>
      <use xlink:href="#DejaVuSans-29" x="1313.904297"/>
     </g>
    </g>
   </g>
   <g id="patch_3">
    <path d="M 54.015 273.312 
L 54.015 7.2 
" style="fill: none; stroke: #000000; stroke-width: 0.8; stroke-linejoin: miter; stroke-linecap: square"/>
   </g>
   <g id="patch_4">
    <path d="M 411.135 273.312 
L 411.135 7.2 
" style="fill: none; stroke: #000000; stroke-width: 0.8; stroke-linejoin: miter; stroke-linecap: square"/>
   </g>
   <g id="patch_5">
    <path d="M 54.015 273.312 
L 411.135 273.312 
" style="fill: none; stroke: #000000; stroke-width: 0.8; stroke-linejoin: miter; stroke-linecap: square"/>
   </g>
   <g id="patch_6">
    <path d="M 54.015 7.2 
L 411.135 7.2 
" style="fill: none; stroke: #000000; stroke-width: 0.8; stroke-linejoin: miter; stroke-linecap: square"/>
   </g>
   <g id="PathCollection_1">
    <defs>
     <path id="mbb45868b6e" d="M 0 3.872983 
C 1.027127 3.872983 2.012324 3.464901 2.738613 2.738613 
C 3.464901 2.012324 3.872983 1.027127 3.872983 0 
C 3.872983 -1.027127 3.464901 -2.012324 2.738613 -2.738613 
C 2.012324 -3.464901 1.027127 -3.872983 0 -3.872983 
C -1.027127 -3.872983 -2.012324 -3.464901 -2.738613 -2.738613 
C -3.464901 -2.012324 -3.872983 -1.027127 -3.872983 0 
C -3.872983 1.027127 -3.464901 2.012324 -2.738613 2.738613 
C -2.012324 3.464901 -1.027127 3.872983 0 3.872983 
z
" style="stroke: #000000"/>
    </defs>
    <g>
     <use xlink:href="#mbb45868b6e" x="108.236714" y="19.296" style="fill: #008000; stroke: #000000"/>
     <use xlink:href="#mbb45868b6e" x="108.034278" y="20.210916" style="fill: #008000; stroke: #000000"/>
     <use xlink:href="#mbb45868b6e" x="108.189578" y="19.503936" style="fill: #008000; stroke: #000000"/>
     <use xlink:href="#mbb45868b6e" x="108.20967" y="19.428559" style="fill: #008000; stroke: #000000"/>
     <use xlink:href="#mbb45868b6e" x="76.974359" y="178.969698" style="fill: #008000; stroke: #000000"/>
     <use xlink:href="#mbb45868b6e" x="79.179671" y="168.986193" style="fill: #008000; stroke: #000000"/>
     <use xlink:href="#mbb45868b6e" x="77.69079" y="175.702511" style="fill: #008000; stroke: #000000"/>
     <use xlink:href="#mbb45868b6e" x="77.213731" y="177.849445" style="fill: #008000; stroke: #000000"/>
     <use xlink:href="#mbb45868b6e" x="70.993339" y="246.47597" style="fill: #008000; stroke: #000000"/>
     <use xlink:href="#mbb45868b6e" x="70.247727" y="249.901708" style="fill: #008000; stroke: #000000"/>
     <use xlink:href="#mbb45868b6e" x="71.082567" y="246.093888" style="fill: #008000; stroke: #000000"/>
     <use xlink:href="#mbb45868b6e" x="71.455501" y="244.394015" style="fill: #008000; stroke: #000000"/>
     <use xlink:href="#mbb45868b6e" x="104.378117" y="254.707618" style="fill: #008000; stroke: #000000"/>
     <use xlink:href="#mbb45868b6e" x="104.205937" y="255.580947" style="fill: #008000; stroke: #000000"/>
     <use xlink:href="#mbb45868b6e" x="105.048093" y="251.76533" style="fill: #008000; stroke: #000000"/>
     <use xlink:href="#mbb45868b6e" x="105.458127" y="249.922501" style="fill: #008000; stroke: #000000"/>
     <use xlink:href="#mbb45868b6e" x="165.491425" y="22.703544" style="fill: #008000; stroke: #000000"/>
     <use xlink:href="#mbb45868b6e" x="165.503065" y="22.633365" style="fill: #008000; stroke: #000000"/>
     <use xlink:href="#mbb45868b6e" x="165.563404" y="22.39164" style="fill: #008000; stroke: #000000"/>
     <use xlink:href="#mbb45868b6e" x="165.551598" y="22.433227" style="fill: #008000; stroke: #000000"/>
     <use xlink:href="#mbb45868b6e" x="132.683661" y="177.288019" style="fill: #008000; stroke: #000000"/>
     <use xlink:href="#mbb45868b6e" x="132.701469" y="177.171056" style="fill: #008000; stroke: #000000"/>
     <use xlink:href="#mbb45868b6e" x="132.745847" y="176.989112" style="fill: #008000; stroke: #000000"/>
     <use xlink:href="#mbb45868b6e" x="132.791405" y="176.830561" style="fill: #008000; stroke: #000000"/>
     <use xlink:href="#mbb45868b6e" x="123.475339" y="253.460005" style="fill: #008000; stroke: #000000"/>
     <use xlink:href="#mbb45868b6e" x="124.453687" y="249.387067" style="fill: #008000; stroke: #000000"/>
     <use xlink:href="#mbb45868b6e" x="123.72264" y="252.399533" style="fill: #008000; stroke: #000000"/>
     <use xlink:href="#mbb45868b6e" x="124.338128" y="249.836728" style="fill: #008000; stroke: #000000"/>
     <use xlink:href="#mbb45868b6e" x="157.599832" y="258.029388" style="fill: #008000; stroke: #000000"/>
     <use xlink:href="#mbb45868b6e" x="158.516022" y="254.213771" style="fill: #008000; stroke: #000000"/>
     <use xlink:href="#mbb45868b6e" x="158.055883" y="256.090389" style="fill: #008000; stroke: #000000"/>
     <use xlink:href="#mbb45868b6e" x="158.706863" y="253.379429" style="fill: #008000; stroke: #000000"/>
     <use xlink:href="#mbb45868b6e" x="115.250811" y="27.083186" style="fill: #008000; stroke: #000000"/>
     <use xlink:href="#mbb45868b6e" x="115.356745" y="26.628327" style="fill: #008000; stroke: #000000"/>
     <use xlink:href="#mbb45868b6e" x="115.690161" y="25.144187" style="fill: #008000; stroke: #000000"/>
     <use xlink:href="#mbb45868b6e" x="115.384166" y="26.495768" style="fill: #008000; stroke: #000000"/>
     <use xlink:href="#mbb45868b6e" x="85.73131" y="177.145064" style="fill: #008000; stroke: #000000"/>
     <use xlink:href="#mbb45868b6e" x="86.482183" y="173.753115" style="fill: #008000; stroke: #000000"/>
     <use xlink:href="#mbb45868b6e" x="85.293717" y="179.068467" style="fill: #008000; stroke: #000000"/>
     <use xlink:href="#mbb45868b6e" x="85.277515" y="179.15684" style="fill: #008000; stroke: #000000"/>
     <use xlink:href="#mbb45868b6e" x="79.135171" y="246.634521" style="fill: #008000; stroke: #000000"/>
     <use xlink:href="#mbb45868b6e" x="78.759108" y="248.329195" style="fill: #008000; stroke: #000000"/>
     <use xlink:href="#mbb45868b6e" x="78.854035" y="247.874336" style="fill: #008000; stroke: #000000"/>
     <use xlink:href="#mbb45868b6e" x="78.624623" y="248.92701" style="fill: #008000; stroke: #000000"/>
     <use xlink:href="#mbb45868b6e" x="113.126632" y="252.116221" style="fill: #008000; stroke: #000000"/>
     <use xlink:href="#mbb45868b6e" x="112.639916" y="254.315139" style="fill: #008000; stroke: #000000"/>
     <use xlink:href="#mbb45868b6e" x="112.976067" y="252.799809" style="fill: #008000; stroke: #000000"/>
     <use xlink:href="#mbb45868b6e" x="112.222718" y="256.191758" style="fill: #008000; stroke: #000000"/>
     <use xlink:href="#mbb45868b6e" x="133.635018" y="21.422141" style="fill: #008000; stroke: #000000"/>
     <use xlink:href="#mbb45868b6e" x="133.45855" y="22.186304" style="fill: #008000; stroke: #000000"/>
     <use xlink:href="#mbb45868b6e" x="133.587694" y="21.624878" style="fill: #008000; stroke: #000000"/>
     <use xlink:href="#mbb45868b6e" x="133.551777" y="21.786028" style="fill: #008000; stroke: #000000"/>
     <use xlink:href="#mbb45868b6e" x="102.247821" y="176.334115" style="fill: #008000; stroke: #000000"/>
     <use xlink:href="#mbb45868b6e" x="102.455236" y="175.4166" style="fill: #008000; stroke: #000000"/>
     <use xlink:href="#mbb45868b6e" x="101.96453" y="177.553137" style="fill: #008000; stroke: #000000"/>
     <use xlink:href="#mbb45868b6e" x="101.783092" y="178.348491" style="fill: #008000; stroke: #000000"/>
     <use xlink:href="#mbb45868b6e" x="94.638283" y="248.698281" style="fill: #008000; stroke: #000000"/>
     <use xlink:href="#mbb45868b6e" x="95.679709" y="244.178282" style="fill: #008000; stroke: #000000"/>
     <use xlink:href="#mbb45868b6e" x="95.031548" y="247.05559" style="fill: #008000; stroke: #000000"/>
     <use xlink:href="#mbb45868b6e" x="94.63096" y="248.724273" style="fill: #008000; stroke: #000000"/>
     <use xlink:href="#mbb45868b6e" x="128.814616" y="253.241672" style="fill: #008000; stroke: #000000"/>
     <use xlink:href="#mbb45868b6e" x="128.455072" y="254.915553" style="fill: #008000; stroke: #000000"/>
     <use xlink:href="#mbb45868b6e" x="128.203406" y="255.931838" style="fill: #008000; stroke: #000000"/>
     <use xlink:href="#mbb45868b6e" x="129.277149" y="251.294876" style="fill: #008000; stroke: #000000"/>
     <use xlink:href="#mbb45868b6e" x="138.480472" y="22.357851" style="fill: #008000; stroke: #000000"/>
     <use xlink:href="#mbb45868b6e" x="138.59581" y="21.879599" style="fill: #008000; stroke: #000000"/>
     <use xlink:href="#mbb45868b6e" x="138.409577" y="22.674952" style="fill: #008000; stroke: #000000"/>
     <use xlink:href="#mbb45868b6e" x="138.576455" y="21.949777" style="fill: #008000; stroke: #000000"/>
     <use xlink:href="#mbb45868b6e" x="107.148316" y="175.793483" style="fill: #008000; stroke: #000000"/>
     <use xlink:href="#mbb45868b6e" x="107.749647" y="173.215082" style="fill: #008000; stroke: #000000"/>
     <use xlink:href="#mbb45868b6e" x="107.341688" y="174.987732" style="fill: #008000; stroke: #000000"/>
     <use xlink:href="#mbb45868b6e" x="107.452385" y="174.449699" style="fill: #008000; stroke: #000000"/>
     <use xlink:href="#mbb45868b6e" x="99.523441" y="247.785964" style="fill: #008000; stroke: #000000"/>
     <use xlink:href="#mbb45868b6e" x="99.712639" y="246.954221" style="fill: #008000; stroke: #000000"/>
     <use xlink:href="#mbb45868b6e" x="99.435459" y="248.178442" style="fill: #008000; stroke: #000000"/>
     <use xlink:href="#mbb45868b6e" x="99.320231" y="248.66709" style="fill: #008000; stroke: #000000"/>
     <use xlink:href="#mbb45868b6e" x="133.724786" y="252.230586" style="fill: #008000; stroke: #000000"/>
     <use xlink:href="#mbb45868b6e" x="132.498833" y="257.595322" style="fill: #008000; stroke: #000000"/>
     <use xlink:href="#mbb45868b6e" x="132.552273" y="257.309411" style="fill: #008000; stroke: #000000"/>
     <use xlink:href="#mbb45868b6e" x="132.358111" y="258.203534" style="fill: #008000; stroke: #000000"/>
     <use xlink:href="#mbb45868b6e" x="196.341453" y="23.465107" style="fill: #008000; stroke: #000000"/>
     <use xlink:href="#mbb45868b6e" x="196.560623" y="22.576183" style="fill: #008000; stroke: #000000"/>
     <use xlink:href="#mbb45868b6e" x="196.288015" y="23.675642" style="fill: #008000; stroke: #000000"/>
     <use xlink:href="#mbb45868b6e" x="196.193329" y="24.055125" style="fill: #008000; stroke: #000000"/>
     <use xlink:href="#mbb45868b6e" x="161.718444" y="179.57531" style="fill: #008000; stroke: #000000"/>
     <use xlink:href="#mbb45868b6e" x="161.688376" y="179.676679" style="fill: #008000; stroke: #000000"/>
     <use xlink:href="#mbb45868b6e" x="161.452189" y="180.659174" style="fill: #008000; stroke: #000000"/>
     <use xlink:href="#mbb45868b6e" x="161.344787" y="181.101037" style="fill: #008000; stroke: #000000"/>
     <use xlink:href="#mbb45868b6e" x="152.207648" y="254.115001" style="fill: #008000; stroke: #000000"/>
     <use xlink:href="#mbb45868b6e" x="153.597382" y="248.516337" style="fill: #008000; stroke: #000000"/>
     <use xlink:href="#mbb45868b6e" x="152.394349" y="253.31445" style="fill: #008000; stroke: #000000"/>
     <use xlink:href="#mbb45868b6e" x="152.808008" y="251.656164" style="fill: #008000; stroke: #000000"/>
     <use xlink:href="#mbb45868b6e" x="186.21793" y="258.915713" style="fill: #008000; stroke: #000000"/>
     <use xlink:href="#mbb45868b6e" x="186.623849" y="257.392585" style="fill: #008000; stroke: #000000"/>
     <use xlink:href="#mbb45868b6e" x="186.811573" y="256.568641" style="fill: #008000; stroke: #000000"/>
     <use xlink:href="#mbb45868b6e" x="187.31867" y="254.523075" style="fill: #008000; stroke: #000000"/>
     <use xlink:href="#mbb45868b6e" x="145.919047" y="28.0059" style="fill: #008000; stroke: #000000"/>
     <use xlink:href="#mbb45868b6e" x="146.110775" y="27.168959" style="fill: #008000; stroke: #000000"/>
     <use xlink:href="#mbb45868b6e" x="146.397399" y="25.931743" style="fill: #008000; stroke: #000000"/>
     <use xlink:href="#mbb45868b6e" x="145.934972" y="27.948717" style="fill: #008000; stroke: #000000"/>
     <use xlink:href="#mbb45868b6e" x="114.41168" y="180.477231" style="fill: #008000; stroke: #000000"/>
     <use xlink:href="#mbb45868b6e" x="114.964821" y="178.150952" style="fill: #008000; stroke: #000000"/>
     <use xlink:href="#mbb45868b6e" x="115.069501" y="177.667502" style="fill: #008000; stroke: #000000"/>
     <use xlink:href="#mbb45868b6e" x="115.671262" y="175.083903" style="fill: #008000; stroke: #000000"/>
     <use xlink:href="#mbb45868b6e" x="107.630669" y="248.048482" style="fill: #008000; stroke: #000000"/>
     <use xlink:href="#mbb45868b6e" x="106.996786" y="250.806227" style="fill: #008000; stroke: #000000"/>
     <use xlink:href="#mbb45868b6e" x="106.241025" y="254.016232" style="fill: #008000; stroke: #000000"/>
     <use xlink:href="#mbb45868b6e" x="107.363329" y="249.199925" style="fill: #008000; stroke: #000000"/>
     <use xlink:href="#mbb45868b6e" x="140.49317" y="258.167145" style="fill: #008000; stroke: #000000"/>
     <use xlink:href="#mbb45868b6e" x="140.906863" y="256.438681" style="fill: #008000; stroke: #000000"/>
     <use xlink:href="#mbb45868b6e" x="140.988844" y="256.059199" style="fill: #008000; stroke: #000000"/>
     <use xlink:href="#mbb45868b6e" x="140.677997" y="257.389986" style="fill: #008000; stroke: #000000"/>
     <use xlink:href="#mbb45868b6e" x="164.223329" y="22.911479" style="fill: #008000; stroke: #000000"/>
     <use xlink:href="#mbb45868b6e" x="164.076636" y="23.545683" style="fill: #008000; stroke: #000000"/>
     <use xlink:href="#mbb45868b6e" x="164.213923" y="22.97386" style="fill: #008000; stroke: #000000"/>
     <use xlink:href="#mbb45868b6e" x="164.14851" y="23.233779" style="fill: #008000; stroke: #000000"/>
     <use xlink:href="#mbb45868b6e" x="131.056435" y="179.214022" style="fill: #008000; stroke: #000000"/>
     <use xlink:href="#mbb45868b6e" x="130.913762" y="179.793643" style="fill: #008000; stroke: #000000"/>
     <use xlink:href="#mbb45868b6e" x="131.371767" y="177.86764" style="fill: #008000; stroke: #000000"/>
     <use xlink:href="#mbb45868b6e" x="131.324466" y="178.05998" style="fill: #008000; stroke: #000000"/>
     <use xlink:href="#mbb45868b6e" x="123.513827" y="248.503341" style="fill: #008000; stroke: #000000"/>
     <use xlink:href="#mbb45868b6e" x="123.466507" y="248.719074" style="fill: #008000; stroke: #000000"/>
     <use xlink:href="#mbb45868b6e" x="122.731335" y="251.749735" style="fill: #008000; stroke: #000000"/>
     <use xlink:href="#mbb45868b6e" x="122.958072" y="250.811426" style="fill: #008000; stroke: #000000"/>
     <use xlink:href="#mbb45868b6e" x="155.704168" y="261.216" style="fill: #008000; stroke: #000000"/>
     <use xlink:href="#mbb45868b6e" x="156.512884" y="257.82925" style="fill: #008000; stroke: #000000"/>
     <use xlink:href="#mbb45868b6e" x="157.132577" y="255.193667" style="fill: #008000; stroke: #000000"/>
     <use xlink:href="#mbb45868b6e" x="157.426524" y="253.940855" style="fill: #008000; stroke: #000000"/>
     <use xlink:href="#mbb45868b6e" x="210.551197" y="22.596977" style="fill: #008000; stroke: #000000"/>
     <use xlink:href="#mbb45868b6e" x="210.358457" y="23.384532" style="fill: #008000; stroke: #000000"/>
     <use xlink:href="#mbb45868b6e" x="210.429438" y="23.062232" style="fill: #008000; stroke: #000000"/>
     <use xlink:href="#mbb45868b6e" x="210.279413" y="23.678241" style="fill: #008000; stroke: #000000"/>
     <use xlink:href="#mbb45868b6e" x="176.060295" y="175.489377" style="fill: #008000; stroke: #000000"/>
     <use xlink:href="#mbb45868b6e" x="176.282608" y="174.618647" style="fill: #008000; stroke: #000000"/>
     <use xlink:href="#mbb45868b6e" x="175.825454" y="176.401694" style="fill: #008000; stroke: #000000"/>
     <use xlink:href="#mbb45868b6e" x="175.979874" y="175.783086" style="fill: #008000; stroke: #000000"/>
     <use xlink:href="#mbb45868b6e" x="167.337667" y="245.657224" style="fill: #008000; stroke: #000000"/>
     <use xlink:href="#mbb45868b6e" x="166.554142" y="248.786653" style="fill: #008000; stroke: #000000"/>
     <use xlink:href="#mbb45868b6e" x="167.020966" y="246.899638" style="fill: #008000; stroke: #000000"/>
     <use xlink:href="#mbb45868b6e" x="166.63057" y="248.485147" style="fill: #008000; stroke: #000000"/>
     <use xlink:href="#mbb45868b6e" x="200.307945" y="254.650435" style="fill: #008000; stroke: #000000"/>
     <use xlink:href="#mbb45868b6e" x="199.477672" y="257.95921" style="fill: #008000; stroke: #000000"/>
     <use xlink:href="#mbb45868b6e" x="200.359771" y="254.364524" style="fill: #008000; stroke: #000000"/>
     <use xlink:href="#mbb45868b6e" x="199.465557" y="257.948813" style="fill: #008000; stroke: #000000"/>
     <use xlink:href="#mbb45868b6e" x="268.660861" y="23.088224" style="fill: #008000; stroke: #000000"/>
     <use xlink:href="#mbb45868b6e" x="268.538385" y="23.530087" style="fill: #008000; stroke: #000000"/>
     <use xlink:href="#mbb45868b6e" x="268.35149" y="24.229271" style="fill: #008000; stroke: #000000"/>
     <use xlink:href="#mbb45868b6e" x="268.624875" y="23.202589" style="fill: #008000; stroke: #000000"/>
     <use xlink:href="#mbb45868b6e" x="230.91567" y="178.309503" style="fill: #008000; stroke: #000000"/>
     <use xlink:href="#mbb45868b6e" x="229.920476" y="182.008156" style="fill: #008000; stroke: #000000"/>
     <use xlink:href="#mbb45868b6e" x="230.410909" y="180.193918" style="fill: #008000; stroke: #000000"/>
     <use xlink:href="#mbb45868b6e" x="230.242354" y="180.822923" style="fill: #008000; stroke: #000000"/>
     <use xlink:href="#mbb45868b6e" x="219.132426" y="255.302833" style="fill: #008000; stroke: #000000"/>
     <use xlink:href="#mbb45868b6e" x="220.628625" y="249.748355" style="fill: #008000; stroke: #000000"/>
     <use xlink:href="#mbb45868b6e" x="220.243671" y="251.18311" style="fill: #008000; stroke: #000000"/>
     <use xlink:href="#mbb45868b6e" x="219.481749" y="254.003236" style="fill: #008000; stroke: #000000"/>
     <use xlink:href="#mbb45868b6e" x="253.79142" y="257.392585" style="fill: #008000; stroke: #000000"/>
     <use xlink:href="#mbb45868b6e" x="254.167919" y="255.986421" style="fill: #008000; stroke: #000000"/>
     <use xlink:href="#mbb45868b6e" x="253.452322" y="258.640199" style="fill: #008000; stroke: #000000"/>
     <use xlink:href="#mbb45868b6e" x="254.021914" y="256.516657" style="fill: #008000; stroke: #000000"/>
     <use xlink:href="#mbb45868b6e" x="218.374784" y="26.251444" style="fill: #008000; stroke: #000000"/>
     <use xlink:href="#mbb45868b6e" x="218.238992" y="26.786878" style="fill: #008000; stroke: #000000"/>
     <use xlink:href="#mbb45868b6e" x="217.972842" y="27.839551" style="fill: #008000; stroke: #000000"/>
     <use xlink:href="#mbb45868b6e" x="218.43356" y="26.027913" style="fill: #008000; stroke: #000000"/>
     <use xlink:href="#mbb45868b6e" x="183.530541" y="178.980095" style="fill: #008000; stroke: #000000"/>
     <use xlink:href="#mbb45868b6e" x="183.217538" y="180.193918" style="fill: #008000; stroke: #000000"/>
     <use xlink:href="#mbb45868b6e" x="183.645634" y="178.522637" style="fill: #008000; stroke: #000000"/>
     <use xlink:href="#mbb45868b6e" x="182.473889" y="183.086822" style="fill: #008000; stroke: #000000"/>
     <use xlink:href="#mbb45868b6e" x="173.738508" y="252.677647" style="fill: #008000; stroke: #000000"/>
     <use xlink:href="#mbb45868b6e" x="174.767337" y="248.602111" style="fill: #008000; stroke: #000000"/>
     <use xlink:href="#mbb45868b6e" x="174.48988" y="249.680776" style="fill: #008000; stroke: #000000"/>
     <use xlink:href="#mbb45868b6e" x="173.839482" y="252.24878" style="fill: #008000; stroke: #000000"/>
     <use xlink:href="#mbb45868b6e" x="208.146059" y="255.770688" style="fill: #008000; stroke: #000000"/>
     <use xlink:href="#mbb45868b6e" x="207.722782" y="257.509549" style="fill: #008000; stroke: #000000"/>
     <use xlink:href="#mbb45868b6e" x="207.880625" y="256.89354" style="fill: #008000; stroke: #000000"/>
     <use xlink:href="#mbb45868b6e" x="207.311414" y="259.089859" style="fill: #008000; stroke: #000000"/>
     <use xlink:href="#mbb45868b6e" x="236.296783" y="23.205188" style="fill: #008000; stroke: #000000"/>
     <use xlink:href="#mbb45868b6e" x="236.189221" y="23.639254" style="fill: #008000; stroke: #000000"/>
     <use xlink:href="#mbb45868b6e" x="236.267801" y="23.32735" style="fill: #008000; stroke: #000000"/>
     <use xlink:href="#mbb45868b6e" x="236.099187" y="23.961554" style="fill: #008000; stroke: #000000"/>
     <use xlink:href="#mbb45868b6e" x="199.282257" y="181.389548" style="fill: #008000; stroke: #000000"/>
     <use xlink:href="#mbb45868b6e" x="199.987653" y="178.668191" style="fill: #008000; stroke: #000000"/>
     <use xlink:href="#mbb45868b6e" x="199.538967" y="180.378461" style="fill: #008000; stroke: #000000"/>
     <use xlink:href="#mbb45868b6e" x="199.954656" y="178.80075" style="fill: #008000; stroke: #000000"/>
     <use xlink:href="#mbb45868b6e" x="190.201432" y="250.824422" style="fill: #008000; stroke: #000000"/>
     <use xlink:href="#mbb45868b6e" x="191.117743" y="247.323307" style="fill: #008000; stroke: #000000"/>
     <use xlink:href="#mbb45868b6e" x="189.686062" y="252.794611" style="fill: #008000; stroke: #000000"/>
     <use xlink:href="#mbb45868b6e" x="190.218489" y="250.769839" style="fill: #008000; stroke: #000000"/>
     <use xlink:href="#mbb45868b6e" x="224.298289" y="255.131286" style="fill: #008000; stroke: #000000"/>
     <use xlink:href="#mbb45868b6e" x="223.959216" y="256.511459" style="fill: #008000; stroke: #000000"/>
     <use xlink:href="#mbb45868b6e" x="224.276272" y="255.175473" style="fill: #008000; stroke: #000000"/>
     <use xlink:href="#mbb45868b6e" x="224.077128" y="256.004616" style="fill: #008000; stroke: #000000"/>
     <use xlink:href="#mbb45868b6e" x="336.819369" y="22.596977" style="fill: #008000; stroke: #000000"/>
     <use xlink:href="#mbb45868b6e" x="336.588723" y="23.384532" style="fill: #008000; stroke: #000000"/>
     <use xlink:href="#mbb45868b6e" x="336.680108" y="23.062232" style="fill: #008000; stroke: #000000"/>
     <use xlink:href="#mbb45868b6e" x="336.498631" y="23.678241" style="fill: #008000; stroke: #000000"/>
     <use xlink:href="#mbb45868b6e" x="296.568913" y="175.489377" style="fill: #008000; stroke: #000000"/>
     <use xlink:href="#mbb45868b6e" x="296.82398" y="174.618647" style="fill: #008000; stroke: #000000"/>
     <use xlink:href="#mbb45868b6e" x="296.307657" y="176.401694" style="fill: #008000; stroke: #000000"/>
     <use xlink:href="#mbb45868b6e" x="296.485349" y="175.783086" style="fill: #008000; stroke: #000000"/>
     <use xlink:href="#mbb45868b6e" x="285.214551" y="245.657224" style="fill: #008000; stroke: #000000"/>
     <use xlink:href="#mbb45868b6e" x="284.3133" y="248.786653" style="fill: #008000; stroke: #000000"/>
     <use xlink:href="#mbb45868b6e" x="284.851111" y="246.899638" style="fill: #008000; stroke: #000000"/>
     <use xlink:href="#mbb45868b6e" x="284.40107" y="248.485147" style="fill: #008000; stroke: #000000"/>
     <use xlink:href="#mbb45868b6e" x="317.838804" y="254.650435" style="fill: #008000; stroke: #000000"/>
     <use xlink:href="#mbb45868b6e" x="316.884067" y="257.95921" style="fill: #008000; stroke: #000000"/>
     <use xlink:href="#mbb45868b6e" x="317.901385" y="254.364524" style="fill: #008000; stroke: #000000"/>
     <use xlink:href="#mbb45868b6e" x="316.864641" y="257.948813" style="fill: #008000; stroke: #000000"/>
     <use xlink:href="#mbb45868b6e" x="394.902273" y="23.088224" style="fill: #008000; stroke: #000000"/>
     <use xlink:href="#mbb45868b6e" x="394.771455" y="23.530087" style="fill: #008000; stroke: #000000"/>
     <use xlink:href="#mbb45868b6e" x="394.549979" y="24.229271" style="fill: #008000; stroke: #000000"/>
     <use xlink:href="#mbb45868b6e" x="394.870266" y="23.202589" style="fill: #008000; stroke: #000000"/>
     <use xlink:href="#mbb45868b6e" x="351.318206" y="178.309503" style="fill: #008000; stroke: #000000"/>
     <use xlink:href="#mbb45868b6e" x="350.175993" y="182.008156" style="fill: #008000; stroke: #000000"/>
     <use xlink:href="#mbb45868b6e" x="350.734666" y="180.193918" style="fill: #008000; stroke: #000000"/>
     <use xlink:href="#mbb45868b6e" x="350.542452" y="180.822923" style="fill: #008000; stroke: #000000"/>
     <use xlink:href="#mbb45868b6e" x="336.638744" y="255.302833" style="fill: #008000; stroke: #000000"/>
     <use xlink:href="#mbb45868b6e" x="338.351605" y="249.748355" style="fill: #008000; stroke: #000000"/>
     <use xlink:href="#mbb45868b6e" x="337.904959" y="251.18311" style="fill: #008000; stroke: #000000"/>
     <use xlink:href="#mbb45868b6e" x="337.036953" y="254.003236" style="fill: #008000; stroke: #000000"/>
     <use xlink:href="#mbb45868b6e" x="371.211427" y="257.392585" style="fill: #008000; stroke: #000000"/>
     <use xlink:href="#mbb45868b6e" x="371.648523" y="255.986421" style="fill: #008000; stroke: #000000"/>
     <use xlink:href="#mbb45868b6e" x="370.833101" y="258.640199" style="fill: #008000; stroke: #000000"/>
     <use xlink:href="#mbb45868b6e" x="371.482572" y="256.516657" style="fill: #008000; stroke: #000000"/>
     <use xlink:href="#mbb45868b6e" x="344.50548" y="26.251444" style="fill: #008000; stroke: #000000"/>
     <use xlink:href="#mbb45868b6e" x="344.349545" y="26.786878" style="fill: #008000; stroke: #000000"/>
     <use xlink:href="#mbb45868b6e" x="344.035525" y="27.839551" style="fill: #008000; stroke: #000000"/>
     <use xlink:href="#mbb45868b6e" x="344.564391" y="26.027913" style="fill: #008000; stroke: #000000"/>
     <use xlink:href="#mbb45868b6e" x="303.907851" y="178.980095" style="fill: #008000; stroke: #000000"/>
     <use xlink:href="#mbb45868b6e" x="303.557081" y="180.193918" style="fill: #008000; stroke: #000000"/>
     <use xlink:href="#mbb45868b6e" x="304.040153" y="178.522637" style="fill: #008000; stroke: #000000"/>
     <use xlink:href="#mbb45868b6e" x="302.704605" y="183.086822" style="fill: #008000; stroke: #000000"/>
     <use xlink:href="#mbb45868b6e" x="291.343577" y="252.677647" style="fill: #008000; stroke: #000000"/>
     <use xlink:href="#mbb45868b6e" x="292.525713" y="248.602111" style="fill: #008000; stroke: #000000"/>
     <use xlink:href="#mbb45868b6e" x="292.215402" y="249.680776" style="fill: #008000; stroke: #000000"/>
     <use xlink:href="#mbb45868b6e" x="291.460683" y="252.24878" style="fill: #008000; stroke: #000000"/>
     <use xlink:href="#mbb45868b6e" x="325.634778" y="255.770688" style="fill: #008000; stroke: #000000"/>
     <use xlink:href="#mbb45868b6e" x="325.138389" y="257.509549" style="fill: #008000; stroke: #000000"/>
     <use xlink:href="#mbb45868b6e" x="325.327107" y="256.89354" style="fill: #008000; stroke: #000000"/>
     <use xlink:href="#mbb45868b6e" x="324.667579" y="259.089859" style="fill: #008000; stroke: #000000"/>
     <use xlink:href="#mbb45868b6e" x="362.542076" y="23.205188" style="fill: #008000; stroke: #000000"/>
     <use xlink:href="#mbb45868b6e" x="362.409905" y="23.639254" style="fill: #008000; stroke: #000000"/>
     <use xlink:href="#mbb45868b6e" x="362.500218" y="23.32735" style="fill: #008000; stroke: #000000"/>
     <use xlink:href="#mbb45868b6e" x="362.316026" y="23.961554" style="fill: #008000; stroke: #000000"/>
     <use xlink:href="#mbb45868b6e" x="319.568932" y="181.389548" style="fill: #008000; stroke: #000000"/>
     <use xlink:href="#mbb45868b6e" x="320.368799" y="178.668191" style="fill: #008000; stroke: #000000"/>
     <use xlink:href="#mbb45868b6e" x="319.863676" y="180.378461" style="fill: #008000; stroke: #000000"/>
     <use xlink:href="#mbb45868b6e" x="320.330816" y="178.80075" style="fill: #008000; stroke: #000000"/>
     <use xlink:href="#mbb45868b6e" x="307.883932" y="250.824422" style="fill: #008000; stroke: #000000"/>
     <use xlink:href="#mbb45868b6e" x="308.924223" y="247.323307" style="fill: #008000; stroke: #000000"/>
     <use xlink:href="#mbb45868b6e" x="307.294445" y="252.794611" style="fill: #008000; stroke: #000000"/>
     <use xlink:href="#mbb45868b6e" x="307.895323" y="250.769839" style="fill: #008000; stroke: #000000"/>
     <use xlink:href="#mbb45868b6e" x="341.81106" y="255.131286" style="fill: #008000; stroke: #000000"/>
     <use xlink:href="#mbb45868b6e" x="341.412366" y="256.511459" style="fill: #008000; stroke: #000000"/>
     <use xlink:href="#mbb45868b6e" x="341.779673" y="255.175473" style="fill: #008000; stroke: #000000"/>
     <use xlink:href="#mbb45868b6e" x="341.549342" y="256.004616" style="fill: #008000; stroke: #000000"/>
    </g>
   </g>
  </g>
 </g>
</svg>
