<?xml version="1.0" encoding="utf-8" standalone="no"?>
<!DOCTYPE svg PUBLIC "-//W3C//DTD SVG 1.1//EN"
  "http://www.w3.org/Graphics/SVG/1.1/DTD/svg11.dtd">
<svg xmlns:xlink="http://www.w3.org/1999/xlink" width="417.740882pt" height="314.7395pt" viewBox="0 0 417.740882 314.7395" xmlns="http://www.w3.org/2000/svg" version="1.1">
 <metadata>
  <rdf:RDF xmlns:dc="http://purl.org/dc/elements/1.1/" xmlns:cc="http://creativecommons.org/ns#" xmlns:rdf="http://www.w3.org/1999/02/22-rdf-syntax-ns#">
   <cc:Work>
    <dc:type rdf:resource="http://purl.org/dc/dcmitype/StillImage"/>
    <dc:date>2023-10-10T13:23:59.783425</dc:date>
    <dc:format>image/svg+xml</dc:format>
    <dc:creator>
     <cc:Agent>
      <dc:title>Matplotlib v3.7.2, https://matplotlib.org/</dc:title>
     </cc:Agent>
    </dc:creator>
   </cc:Work>
  </rdf:RDF>
 </metadata>
 <defs>
  <style type="text/css">*{stroke-linejoin: round; stroke-linecap: butt}</style>
 </defs>
 <g id="figure_1">
  <g id="patch_1">
   <path d="M 0 314.7395 
L 417.740882 314.7395 
L 417.740882 0 
L 0 0 
z
" style="fill: #ffffff"/>
  </g>
  <g id="axes_1">
   <g id="patch_2">
    <path d="M 47.6525 273.312 
L 404.7725 273.312 
L 404.7725 7.2 
L 47.6525 7.2 
z
" style="fill: #ffffff"/>
   </g>
   <g id="matplotlib.axis_1">
    <g id="xtick_1">
     <g id="line2d_1">
      <defs>
       <path id="m1e3cebdeae" d="M 0 0 
L 0 3.5 
" style="stroke: #000000; stroke-width: 0.8"/>
      </defs>
      <g>
       <use xlink:href="#m1e3cebdeae" x="66.246178" y="273.312" style="stroke: #000000; stroke-width: 0.8"/>
      </g>
     </g>
     <g id="text_1">
      <!-- 1.2 -->
      <g transform="translate(58.294616 287.910438) scale(0.1 -0.1)">
       <defs>
        <path id="DejaVuSans-31" d="M 794 531 
L 1825 531 
L 1825 4091 
L 703 3866 
L 703 4441 
L 1819 4666 
L 2450 4666 
L 2450 531 
L 3481 531 
L 3481 0 
L 794 0 
L 794 531 
z
" transform="scale(0.015625)"/>
        <path id="DejaVuSans-2e" d="M 684 794 
L 1344 794 
L 1344 0 
L 684 0 
L 684 794 
z
" transform="scale(0.015625)"/>
        <path id="DejaVuSans-32" d="M 1228 531 
L 3431 531 
L 3431 0 
L 469 0 
L 469 531 
Q 828 903 1448 1529 
Q 2069 2156 2228 2338 
Q 2531 2678 2651 2914 
Q 2772 3150 2772 3378 
Q 2772 3750 2511 3984 
Q 2250 4219 1831 4219 
Q 1534 4219 1204 4116 
Q 875 4013 500 3803 
L 500 4441 
Q 881 4594 1212 4672 
Q 1544 4750 1819 4750 
Q 2544 4750 2975 4387 
Q 3406 4025 3406 3419 
Q 3406 3131 3298 2873 
Q 3191 2616 2906 2266 
Q 2828 2175 2409 1742 
Q 1991 1309 1228 531 
z
" transform="scale(0.015625)"/>
       </defs>
       <use xlink:href="#DejaVuSans-31"/>
       <use xlink:href="#DejaVuSans-2e" x="63.623047"/>
       <use xlink:href="#DejaVuSans-32" x="95.410156"/>
      </g>
     </g>
    </g>
    <g id="xtick_2">
     <g id="line2d_2">
      <g>
       <use xlink:href="#m1e3cebdeae" x="133.514806" y="273.312" style="stroke: #000000; stroke-width: 0.8"/>
      </g>
     </g>
     <g id="text_2">
      <!-- 1.4 -->
      <g transform="translate(125.563244 287.910438) scale(0.1 -0.1)">
       <defs>
        <path id="DejaVuSans-34" d="M 2419 4116 
L 825 1625 
L 2419 1625 
L 2419 4116 
z
M 2253 4666 
L 3047 4666 
L 3047 1625 
L 3713 1625 
L 3713 1100 
L 3047 1100 
L 3047 0 
L 2419 0 
L 2419 1100 
L 313 1100 
L 313 1709 
L 2253 4666 
z
" transform="scale(0.015625)"/>
       </defs>
       <use xlink:href="#DejaVuSans-31"/>
       <use xlink:href="#DejaVuSans-2e" x="63.623047"/>
       <use xlink:href="#DejaVuSans-34" x="95.410156"/>
      </g>
     </g>
    </g>
    <g id="xtick_3">
     <g id="line2d_3">
      <g>
       <use xlink:href="#m1e3cebdeae" x="200.783434" y="273.312" style="stroke: #000000; stroke-width: 0.8"/>
      </g>
     </g>
     <g id="text_3">
      <!-- 1.6 -->
      <g transform="translate(192.831872 287.910438) scale(0.1 -0.1)">
       <defs>
        <path id="DejaVuSans-36" d="M 2113 2584 
Q 1688 2584 1439 2293 
Q 1191 2003 1191 1497 
Q 1191 994 1439 701 
Q 1688 409 2113 409 
Q 2538 409 2786 701 
Q 3034 994 3034 1497 
Q 3034 2003 2786 2293 
Q 2538 2584 2113 2584 
z
M 3366 4563 
L 3366 3988 
Q 3128 4100 2886 4159 
Q 2644 4219 2406 4219 
Q 1781 4219 1451 3797 
Q 1122 3375 1075 2522 
Q 1259 2794 1537 2939 
Q 1816 3084 2150 3084 
Q 2853 3084 3261 2657 
Q 3669 2231 3669 1497 
Q 3669 778 3244 343 
Q 2819 -91 2113 -91 
Q 1303 -91 875 529 
Q 447 1150 447 2328 
Q 447 3434 972 4092 
Q 1497 4750 2381 4750 
Q 2619 4750 2861 4703 
Q 3103 4656 3366 4563 
z
" transform="scale(0.015625)"/>
       </defs>
       <use xlink:href="#DejaVuSans-31"/>
       <use xlink:href="#DejaVuSans-2e" x="63.623047"/>
       <use xlink:href="#DejaVuSans-36" x="95.410156"/>
      </g>
     </g>
    </g>
    <g id="xtick_4">
     <g id="line2d_4">
      <g>
       <use xlink:href="#m1e3cebdeae" x="268.052063" y="273.312" style="stroke: #000000; stroke-width: 0.8"/>
      </g>
     </g>
     <g id="text_4">
      <!-- 1.8 -->
      <g transform="translate(260.1005 287.910438) scale(0.1 -0.1)">
       <defs>
        <path id="DejaVuSans-38" d="M 2034 2216 
Q 1584 2216 1326 1975 
Q 1069 1734 1069 1313 
Q 1069 891 1326 650 
Q 1584 409 2034 409 
Q 2484 409 2743 651 
Q 3003 894 3003 1313 
Q 3003 1734 2745 1975 
Q 2488 2216 2034 2216 
z
M 1403 2484 
Q 997 2584 770 2862 
Q 544 3141 544 3541 
Q 544 4100 942 4425 
Q 1341 4750 2034 4750 
Q 2731 4750 3128 4425 
Q 3525 4100 3525 3541 
Q 3525 3141 3298 2862 
Q 3072 2584 2669 2484 
Q 3125 2378 3379 2068 
Q 3634 1759 3634 1313 
Q 3634 634 3220 271 
Q 2806 -91 2034 -91 
Q 1263 -91 848 271 
Q 434 634 434 1313 
Q 434 1759 690 2068 
Q 947 2378 1403 2484 
z
M 1172 3481 
Q 1172 3119 1398 2916 
Q 1625 2713 2034 2713 
Q 2441 2713 2670 2916 
Q 2900 3119 2900 3481 
Q 2900 3844 2670 4047 
Q 2441 4250 2034 4250 
Q 1625 4250 1398 4047 
Q 1172 3844 1172 3481 
z
" transform="scale(0.015625)"/>
       </defs>
       <use xlink:href="#DejaVuSans-31"/>
       <use xlink:href="#DejaVuSans-2e" x="63.623047"/>
       <use xlink:href="#DejaVuSans-38" x="95.410156"/>
      </g>
     </g>
    </g>
    <g id="xtick_5">
     <g id="line2d_5">
      <g>
       <use xlink:href="#m1e3cebdeae" x="335.320691" y="273.312" style="stroke: #000000; stroke-width: 0.8"/>
      </g>
     </g>
     <g id="text_5">
      <!-- 2.0 -->
      <g transform="translate(327.369128 287.910438) scale(0.1 -0.1)">
       <defs>
        <path id="DejaVuSans-30" d="M 2034 4250 
Q 1547 4250 1301 3770 
Q 1056 3291 1056 2328 
Q 1056 1369 1301 889 
Q 1547 409 2034 409 
Q 2525 409 2770 889 
Q 3016 1369 3016 2328 
Q 3016 3291 2770 3770 
Q 2525 4250 2034 4250 
z
M 2034 4750 
Q 2819 4750 3233 4129 
Q 3647 3509 3647 2328 
Q 3647 1150 3233 529 
Q 2819 -91 2034 -91 
Q 1250 -91 836 529 
Q 422 1150 422 2328 
Q 422 3509 836 4129 
Q 1250 4750 2034 4750 
z
" transform="scale(0.015625)"/>
       </defs>
       <use xlink:href="#DejaVuSans-32"/>
       <use xlink:href="#DejaVuSans-2e" x="63.623047"/>
       <use xlink:href="#DejaVuSans-30" x="95.410156"/>
      </g>
     </g>
    </g>
    <g id="xtick_6">
     <g id="line2d_6">
      <g>
       <use xlink:href="#m1e3cebdeae" x="402.589319" y="273.312" style="stroke: #000000; stroke-width: 0.8"/>
      </g>
     </g>
     <g id="text_6">
      <!-- 2.2 -->
      <g transform="translate(394.637757 287.910438) scale(0.1 -0.1)">
       <use xlink:href="#DejaVuSans-32"/>
       <use xlink:href="#DejaVuSans-2e" x="63.623047"/>
       <use xlink:href="#DejaVuSans-32" x="95.410156"/>
      </g>
     </g>
    </g>
    <g id="text_7">
     <!-- Energy [J] -->
     <g transform="translate(191.951875 304.627938) scale(0.14 -0.14)">
      <defs>
       <path id="DejaVuSans-45" d="M 628 4666 
L 3578 4666 
L 3578 4134 
L 1259 4134 
L 1259 2753 
L 3481 2753 
L 3481 2222 
L 1259 2222 
L 1259 531 
L 3634 531 
L 3634 0 
L 628 0 
L 628 4666 
z
" transform="scale(0.015625)"/>
       <path id="DejaVuSans-6e" d="M 3513 2113 
L 3513 0 
L 2938 0 
L 2938 2094 
Q 2938 2591 2744 2837 
Q 2550 3084 2163 3084 
Q 1697 3084 1428 2787 
Q 1159 2491 1159 1978 
L 1159 0 
L 581 0 
L 581 3500 
L 1159 3500 
L 1159 2956 
Q 1366 3272 1645 3428 
Q 1925 3584 2291 3584 
Q 2894 3584 3203 3211 
Q 3513 2838 3513 2113 
z
" transform="scale(0.015625)"/>
       <path id="DejaVuSans-65" d="M 3597 1894 
L 3597 1613 
L 953 1613 
Q 991 1019 1311 708 
Q 1631 397 2203 397 
Q 2534 397 2845 478 
Q 3156 559 3463 722 
L 3463 178 
Q 3153 47 2828 -22 
Q 2503 -91 2169 -91 
Q 1331 -91 842 396 
Q 353 884 353 1716 
Q 353 2575 817 3079 
Q 1281 3584 2069 3584 
Q 2775 3584 3186 3129 
Q 3597 2675 3597 1894 
z
M 3022 2063 
Q 3016 2534 2758 2815 
Q 2500 3097 2075 3097 
Q 1594 3097 1305 2825 
Q 1016 2553 972 2059 
L 3022 2063 
z
" transform="scale(0.015625)"/>
       <path id="DejaVuSans-72" d="M 2631 2963 
Q 2534 3019 2420 3045 
Q 2306 3072 2169 3072 
Q 1681 3072 1420 2755 
Q 1159 2438 1159 1844 
L 1159 0 
L 581 0 
L 581 3500 
L 1159 3500 
L 1159 2956 
Q 1341 3275 1631 3429 
Q 1922 3584 2338 3584 
Q 2397 3584 2469 3576 
Q 2541 3569 2628 3553 
L 2631 2963 
z
" transform="scale(0.015625)"/>
       <path id="DejaVuSans-67" d="M 2906 1791 
Q 2906 2416 2648 2759 
Q 2391 3103 1925 3103 
Q 1463 3103 1205 2759 
Q 947 2416 947 1791 
Q 947 1169 1205 825 
Q 1463 481 1925 481 
Q 2391 481 2648 825 
Q 2906 1169 2906 1791 
z
M 3481 434 
Q 3481 -459 3084 -895 
Q 2688 -1331 1869 -1331 
Q 1566 -1331 1297 -1286 
Q 1028 -1241 775 -1147 
L 775 -588 
Q 1028 -725 1275 -790 
Q 1522 -856 1778 -856 
Q 2344 -856 2625 -561 
Q 2906 -266 2906 331 
L 2906 616 
Q 2728 306 2450 153 
Q 2172 0 1784 0 
Q 1141 0 747 490 
Q 353 981 353 1791 
Q 353 2603 747 3093 
Q 1141 3584 1784 3584 
Q 2172 3584 2450 3431 
Q 2728 3278 2906 2969 
L 2906 3500 
L 3481 3500 
L 3481 434 
z
" transform="scale(0.015625)"/>
       <path id="DejaVuSans-79" d="M 2059 -325 
Q 1816 -950 1584 -1140 
Q 1353 -1331 966 -1331 
L 506 -1331 
L 506 -850 
L 844 -850 
Q 1081 -850 1212 -737 
Q 1344 -625 1503 -206 
L 1606 56 
L 191 3500 
L 800 3500 
L 1894 763 
L 2988 3500 
L 3597 3500 
L 2059 -325 
z
" transform="scale(0.015625)"/>
       <path id="DejaVuSans-20" transform="scale(0.015625)"/>
       <path id="DejaVuSans-5b" d="M 550 4863 
L 1875 4863 
L 1875 4416 
L 1125 4416 
L 1125 -397 
L 1875 -397 
L 1875 -844 
L 550 -844 
L 550 4863 
z
" transform="scale(0.015625)"/>
       <path id="DejaVuSans-4a" d="M 628 4666 
L 1259 4666 
L 1259 325 
Q 1259 -519 939 -900 
Q 619 -1281 -91 -1281 
L -331 -1281 
L -331 -750 
L -134 -750 
Q 284 -750 456 -515 
Q 628 -281 628 325 
L 628 4666 
z
" transform="scale(0.015625)"/>
       <path id="DejaVuSans-5d" d="M 1947 4863 
L 1947 -844 
L 622 -844 
L 622 -397 
L 1369 -397 
L 1369 4416 
L 622 4416 
L 622 4863 
L 1947 4863 
z
" transform="scale(0.015625)"/>
      </defs>
      <use xlink:href="#DejaVuSans-45"/>
      <use xlink:href="#DejaVuSans-6e" x="63.183594"/>
      <use xlink:href="#DejaVuSans-65" x="126.5625"/>
      <use xlink:href="#DejaVuSans-72" x="188.085938"/>
      <use xlink:href="#DejaVuSans-67" x="227.449219"/>
      <use xlink:href="#DejaVuSans-79" x="290.925781"/>
      <use xlink:href="#DejaVuSans-20" x="350.105469"/>
      <use xlink:href="#DejaVuSans-5b" x="381.892578"/>
      <use xlink:href="#DejaVuSans-4a" x="420.90625"/>
      <use xlink:href="#DejaVuSans-5d" x="450.398438"/>
     </g>
    </g>
   </g>
   <g id="matplotlib.axis_2">
    <g id="ytick_1">
     <g id="line2d_7">
      <defs>
       <path id="mf31371c307" d="M 0 0 
L -3.5 0 
" style="stroke: #000000; stroke-width: 0.8"/>
      </defs>
      <g>
       <use xlink:href="#mf31371c307" x="47.6525" y="260.925699" style="stroke: #000000; stroke-width: 0.8"/>
      </g>
     </g>
     <g id="text_8">
      <!-- 0.9 -->
      <g transform="translate(24.749375 264.724918) scale(0.1 -0.1)">
       <defs>
        <path id="DejaVuSans-39" d="M 703 97 
L 703 672 
Q 941 559 1184 500 
Q 1428 441 1663 441 
Q 2288 441 2617 861 
Q 2947 1281 2994 2138 
Q 2813 1869 2534 1725 
Q 2256 1581 1919 1581 
Q 1219 1581 811 2004 
Q 403 2428 403 3163 
Q 403 3881 828 4315 
Q 1253 4750 1959 4750 
Q 2769 4750 3195 4129 
Q 3622 3509 3622 2328 
Q 3622 1225 3098 567 
Q 2575 -91 1691 -91 
Q 1453 -91 1209 -44 
Q 966 3 703 97 
z
M 1959 2075 
Q 2384 2075 2632 2365 
Q 2881 2656 2881 3163 
Q 2881 3666 2632 3958 
Q 2384 4250 1959 4250 
Q 1534 4250 1286 3958 
Q 1038 3666 1038 3163 
Q 1038 2656 1286 2365 
Q 1534 2075 1959 2075 
z
" transform="scale(0.015625)"/>
       </defs>
       <use xlink:href="#DejaVuSans-30"/>
       <use xlink:href="#DejaVuSans-2e" x="63.623047"/>
       <use xlink:href="#DejaVuSans-39" x="95.410156"/>
      </g>
     </g>
    </g>
    <g id="ytick_2">
     <g id="line2d_8">
      <g>
       <use xlink:href="#mf31371c307" x="47.6525" y="218.108455" style="stroke: #000000; stroke-width: 0.8"/>
      </g>
     </g>
     <g id="text_9">
      <!-- 1.0 -->
      <g transform="translate(24.749375 221.907673) scale(0.1 -0.1)">
       <use xlink:href="#DejaVuSans-31"/>
       <use xlink:href="#DejaVuSans-2e" x="63.623047"/>
       <use xlink:href="#DejaVuSans-30" x="95.410156"/>
      </g>
     </g>
    </g>
    <g id="ytick_3">
     <g id="line2d_9">
      <g>
       <use xlink:href="#mf31371c307" x="47.6525" y="175.29121" style="stroke: #000000; stroke-width: 0.8"/>
      </g>
     </g>
     <g id="text_10">
      <!-- 1.1 -->
      <g transform="translate(24.749375 179.090429) scale(0.1 -0.1)">
       <use xlink:href="#DejaVuSans-31"/>
       <use xlink:href="#DejaVuSans-2e" x="63.623047"/>
       <use xlink:href="#DejaVuSans-31" x="95.410156"/>
      </g>
     </g>
    </g>
    <g id="ytick_4">
     <g id="line2d_10">
      <g>
       <use xlink:href="#mf31371c307" x="47.6525" y="132.473966" style="stroke: #000000; stroke-width: 0.8"/>
      </g>
     </g>
     <g id="text_11">
      <!-- 1.2 -->
      <g transform="translate(24.749375 136.273185) scale(0.1 -0.1)">
       <use xlink:href="#DejaVuSans-31"/>
       <use xlink:href="#DejaVuSans-2e" x="63.623047"/>
       <use xlink:href="#DejaVuSans-32" x="95.410156"/>
      </g>
     </g>
    </g>
    <g id="ytick_5">
     <g id="line2d_11">
      <g>
       <use xlink:href="#mf31371c307" x="47.6525" y="89.656721" style="stroke: #000000; stroke-width: 0.8"/>
      </g>
     </g>
     <g id="text_12">
      <!-- 1.3 -->
      <g transform="translate(24.749375 93.45594) scale(0.1 -0.1)">
       <defs>
        <path id="DejaVuSans-33" d="M 2597 2516 
Q 3050 2419 3304 2112 
Q 3559 1806 3559 1356 
Q 3559 666 3084 287 
Q 2609 -91 1734 -91 
Q 1441 -91 1130 -33 
Q 819 25 488 141 
L 488 750 
Q 750 597 1062 519 
Q 1375 441 1716 441 
Q 2309 441 2620 675 
Q 2931 909 2931 1356 
Q 2931 1769 2642 2001 
Q 2353 2234 1838 2234 
L 1294 2234 
L 1294 2753 
L 1863 2753 
Q 2328 2753 2575 2939 
Q 2822 3125 2822 3475 
Q 2822 3834 2567 4026 
Q 2313 4219 1838 4219 
Q 1578 4219 1281 4162 
Q 984 4106 628 3988 
L 628 4550 
Q 988 4650 1302 4700 
Q 1616 4750 1894 4750 
Q 2613 4750 3031 4423 
Q 3450 4097 3450 3541 
Q 3450 3153 3228 2886 
Q 3006 2619 2597 2516 
z
" transform="scale(0.015625)"/>
       </defs>
       <use xlink:href="#DejaVuSans-31"/>
       <use xlink:href="#DejaVuSans-2e" x="63.623047"/>
       <use xlink:href="#DejaVuSans-33" x="95.410156"/>
      </g>
     </g>
    </g>
    <g id="ytick_6">
     <g id="line2d_12">
      <g>
       <use xlink:href="#mf31371c307" x="47.6525" y="46.839477" style="stroke: #000000; stroke-width: 0.8"/>
      </g>
     </g>
     <g id="text_13">
      <!-- 1.4 -->
      <g transform="translate(24.749375 50.638696) scale(0.1 -0.1)">
       <use xlink:href="#DejaVuSans-31"/>
       <use xlink:href="#DejaVuSans-2e" x="63.623047"/>
       <use xlink:href="#DejaVuSans-34" x="95.410156"/>
      </g>
     </g>
    </g>
    <g id="text_14">
     <!-- CPI (Cycles Per Instruction) -->
     <g transform="translate(17.837813 234.959438) rotate(-90) scale(0.14 -0.14)">
      <defs>
       <path id="DejaVuSans-43" d="M 4122 4306 
L 4122 3641 
Q 3803 3938 3442 4084 
Q 3081 4231 2675 4231 
Q 1875 4231 1450 3742 
Q 1025 3253 1025 2328 
Q 1025 1406 1450 917 
Q 1875 428 2675 428 
Q 3081 428 3442 575 
Q 3803 722 4122 1019 
L 4122 359 
Q 3791 134 3420 21 
Q 3050 -91 2638 -91 
Q 1578 -91 968 557 
Q 359 1206 359 2328 
Q 359 3453 968 4101 
Q 1578 4750 2638 4750 
Q 3056 4750 3426 4639 
Q 3797 4528 4122 4306 
z
" transform="scale(0.015625)"/>
       <path id="DejaVuSans-50" d="M 1259 4147 
L 1259 2394 
L 2053 2394 
Q 2494 2394 2734 2622 
Q 2975 2850 2975 3272 
Q 2975 3691 2734 3919 
Q 2494 4147 2053 4147 
L 1259 4147 
z
M 628 4666 
L 2053 4666 
Q 2838 4666 3239 4311 
Q 3641 3956 3641 3272 
Q 3641 2581 3239 2228 
Q 2838 1875 2053 1875 
L 1259 1875 
L 1259 0 
L 628 0 
L 628 4666 
z
" transform="scale(0.015625)"/>
       <path id="DejaVuSans-49" d="M 628 4666 
L 1259 4666 
L 1259 0 
L 628 0 
L 628 4666 
z
" transform="scale(0.015625)"/>
       <path id="DejaVuSans-28" d="M 1984 4856 
Q 1566 4138 1362 3434 
Q 1159 2731 1159 2009 
Q 1159 1288 1364 580 
Q 1569 -128 1984 -844 
L 1484 -844 
Q 1016 -109 783 600 
Q 550 1309 550 2009 
Q 550 2706 781 3412 
Q 1013 4119 1484 4856 
L 1984 4856 
z
" transform="scale(0.015625)"/>
       <path id="DejaVuSans-63" d="M 3122 3366 
L 3122 2828 
Q 2878 2963 2633 3030 
Q 2388 3097 2138 3097 
Q 1578 3097 1268 2742 
Q 959 2388 959 1747 
Q 959 1106 1268 751 
Q 1578 397 2138 397 
Q 2388 397 2633 464 
Q 2878 531 3122 666 
L 3122 134 
Q 2881 22 2623 -34 
Q 2366 -91 2075 -91 
Q 1284 -91 818 406 
Q 353 903 353 1747 
Q 353 2603 823 3093 
Q 1294 3584 2113 3584 
Q 2378 3584 2631 3529 
Q 2884 3475 3122 3366 
z
" transform="scale(0.015625)"/>
       <path id="DejaVuSans-6c" d="M 603 4863 
L 1178 4863 
L 1178 0 
L 603 0 
L 603 4863 
z
" transform="scale(0.015625)"/>
       <path id="DejaVuSans-73" d="M 2834 3397 
L 2834 2853 
Q 2591 2978 2328 3040 
Q 2066 3103 1784 3103 
Q 1356 3103 1142 2972 
Q 928 2841 928 2578 
Q 928 2378 1081 2264 
Q 1234 2150 1697 2047 
L 1894 2003 
Q 2506 1872 2764 1633 
Q 3022 1394 3022 966 
Q 3022 478 2636 193 
Q 2250 -91 1575 -91 
Q 1294 -91 989 -36 
Q 684 19 347 128 
L 347 722 
Q 666 556 975 473 
Q 1284 391 1588 391 
Q 1994 391 2212 530 
Q 2431 669 2431 922 
Q 2431 1156 2273 1281 
Q 2116 1406 1581 1522 
L 1381 1569 
Q 847 1681 609 1914 
Q 372 2147 372 2553 
Q 372 3047 722 3315 
Q 1072 3584 1716 3584 
Q 2034 3584 2315 3537 
Q 2597 3491 2834 3397 
z
" transform="scale(0.015625)"/>
       <path id="DejaVuSans-74" d="M 1172 4494 
L 1172 3500 
L 2356 3500 
L 2356 3053 
L 1172 3053 
L 1172 1153 
Q 1172 725 1289 603 
Q 1406 481 1766 481 
L 2356 481 
L 2356 0 
L 1766 0 
Q 1100 0 847 248 
Q 594 497 594 1153 
L 594 3053 
L 172 3053 
L 172 3500 
L 594 3500 
L 594 4494 
L 1172 4494 
z
" transform="scale(0.015625)"/>
       <path id="DejaVuSans-75" d="M 544 1381 
L 544 3500 
L 1119 3500 
L 1119 1403 
Q 1119 906 1312 657 
Q 1506 409 1894 409 
Q 2359 409 2629 706 
Q 2900 1003 2900 1516 
L 2900 3500 
L 3475 3500 
L 3475 0 
L 2900 0 
L 2900 538 
Q 2691 219 2414 64 
Q 2138 -91 1772 -91 
Q 1169 -91 856 284 
Q 544 659 544 1381 
z
M 1991 3584 
L 1991 3584 
z
" transform="scale(0.015625)"/>
       <path id="DejaVuSans-69" d="M 603 3500 
L 1178 3500 
L 1178 0 
L 603 0 
L 603 3500 
z
M 603 4863 
L 1178 4863 
L 1178 4134 
L 603 4134 
L 603 4863 
z
" transform="scale(0.015625)"/>
       <path id="DejaVuSans-6f" d="M 1959 3097 
Q 1497 3097 1228 2736 
Q 959 2375 959 1747 
Q 959 1119 1226 758 
Q 1494 397 1959 397 
Q 2419 397 2687 759 
Q 2956 1122 2956 1747 
Q 2956 2369 2687 2733 
Q 2419 3097 1959 3097 
z
M 1959 3584 
Q 2709 3584 3137 3096 
Q 3566 2609 3566 1747 
Q 3566 888 3137 398 
Q 2709 -91 1959 -91 
Q 1206 -91 779 398 
Q 353 888 353 1747 
Q 353 2609 779 3096 
Q 1206 3584 1959 3584 
z
" transform="scale(0.015625)"/>
       <path id="DejaVuSans-29" d="M 513 4856 
L 1013 4856 
Q 1481 4119 1714 3412 
Q 1947 2706 1947 2009 
Q 1947 1309 1714 600 
Q 1481 -109 1013 -844 
L 513 -844 
Q 928 -128 1133 580 
Q 1338 1288 1338 2009 
Q 1338 2731 1133 3434 
Q 928 4138 513 4856 
z
" transform="scale(0.015625)"/>
      </defs>
      <use xlink:href="#DejaVuSans-43"/>
      <use xlink:href="#DejaVuSans-50" x="69.824219"/>
      <use xlink:href="#DejaVuSans-49" x="130.126953"/>
      <use xlink:href="#DejaVuSans-20" x="159.619141"/>
      <use xlink:href="#DejaVuSans-28" x="191.40625"/>
      <use xlink:href="#DejaVuSans-43" x="230.419922"/>
      <use xlink:href="#DejaVuSans-79" x="300.244141"/>
      <use xlink:href="#DejaVuSans-63" x="359.423828"/>
      <use xlink:href="#DejaVuSans-6c" x="414.404297"/>
      <use xlink:href="#DejaVuSans-65" x="442.1875"/>
      <use xlink:href="#DejaVuSans-73" x="503.710938"/>
      <use xlink:href="#DejaVuSans-20" x="555.810547"/>
      <use xlink:href="#DejaVuSans-50" x="587.597656"/>
      <use xlink:href="#DejaVuSans-65" x="644.275391"/>
      <use xlink:href="#DejaVuSans-72" x="705.798828"/>
      <use xlink:href="#DejaVuSans-20" x="746.912109"/>
      <use xlink:href="#DejaVuSans-49" x="778.699219"/>
      <use xlink:href="#DejaVuSans-6e" x="808.191406"/>
      <use xlink:href="#DejaVuSans-73" x="871.570312"/>
      <use xlink:href="#DejaVuSans-74" x="923.669922"/>
      <use xlink:href="#DejaVuSans-72" x="962.878906"/>
      <use xlink:href="#DejaVuSans-75" x="1003.992188"/>
      <use xlink:href="#DejaVuSans-63" x="1067.371094"/>
      <use xlink:href="#DejaVuSans-74" x="1122.351562"/>
      <use xlink:href="#DejaVuSans-69" x="1161.560547"/>
      <use xlink:href="#DejaVuSans-6f" x="1189.34375"/>
      <use xlink:href="#DejaVuSans-6e" x="1250.525391"/>
      <use xlink:href="#DejaVuSans-29" x="1313.904297"/>
     </g>
    </g>
   </g>
   <g id="patch_3">
    <path d="M 47.6525 273.312 
L 47.6525 7.2 
" style="fill: none; stroke: #000000; stroke-width: 0.8; stroke-linejoin: miter; stroke-linecap: square"/>
   </g>
   <g id="patch_4">
    <path d="M 404.7725 273.312 
L 404.7725 7.2 
" style="fill: none; stroke: #000000; stroke-width: 0.8; stroke-linejoin: miter; stroke-linecap: square"/>
   </g>
   <g id="patch_5">
    <path d="M 47.6525 273.312 
L 404.7725 273.312 
" style="fill: none; stroke: #000000; stroke-width: 0.8; stroke-linejoin: miter; stroke-linecap: square"/>
   </g>
   <g id="patch_6">
    <path d="M 47.6525 7.2 
L 404.7725 7.2 
" style="fill: none; stroke: #000000; stroke-width: 0.8; stroke-linejoin: miter; stroke-linecap: square"/>
   </g>
   <g id="PathCollection_1">
    <defs>
     <path id="m19cf200cce" d="M 0 3.872983 
C 1.027127 3.872983 2.012324 3.464901 2.738613 2.738613 
C 3.464901 2.012324 3.872983 1.027127 3.872983 0 
C 3.872983 -1.027127 3.464901 -2.012324 2.738613 -2.738613 
C 2.012324 -3.464901 1.027127 -3.872983 0 -3.872983 
C -1.027127 -3.872983 -2.012324 -3.464901 -2.738613 -2.738613 
C -3.464901 -2.012324 -3.872983 -1.027127 -3.872983 0 
C -3.872983 1.027127 -3.464901 2.012324 -2.738613 2.738613 
C -2.012324 3.464901 -1.027127 3.872983 0 3.872983 
z
" style="stroke: #000000"/>
    </defs>
    <g>
     <use xlink:href="#m19cf200cce" x="217.24532" y="19.304135" style="fill: #0000ff; stroke: #000000"/>
     <use xlink:href="#m19cf200cce" x="217.247591" y="19.296" style="fill: #0000ff; stroke: #000000"/>
     <use xlink:href="#m19cf200cce" x="217.245698" y="19.303707" style="fill: #0000ff; stroke: #000000"/>
     <use xlink:href="#m19cf200cce" x="217.24532" y="19.304135" style="fill: #0000ff; stroke: #000000"/>
     <use xlink:href="#m19cf200cce" x="66.537455" y="238.921061" style="fill: #0000ff; stroke: #000000"/>
     <use xlink:href="#m19cf200cce" x="66.791644" y="238.503165" style="fill: #0000ff; stroke: #000000"/>
     <use xlink:href="#m19cf200cce" x="66.653275" y="238.917207" style="fill: #0000ff; stroke: #000000"/>
     <use xlink:href="#m19cf200cce" x="66.538076" y="238.917207" style="fill: #0000ff; stroke: #000000"/>
     <use xlink:href="#m19cf200cce" x="63.885227" y="255.368449" style="fill: #0000ff; stroke: #000000"/>
     <use xlink:href="#m19cf200cce" x="64.370034" y="254.785278" style="fill: #0000ff; stroke: #000000"/>
     <use xlink:href="#m19cf200cce" x="64.094102" y="255.341474" style="fill: #0000ff; stroke: #000000"/>
     <use xlink:href="#m19cf200cce" x="63.889628" y="255.36117" style="fill: #0000ff; stroke: #000000"/>
     <use xlink:href="#m19cf200cce" x="98.348932" y="261.194591" style="fill: #0000ff; stroke: #000000"/>
     <use xlink:href="#m19cf200cce" x="99.013299" y="260.433301" style="fill: #0000ff; stroke: #000000"/>
     <use xlink:href="#m19cf200cce" x="98.552725" y="261.174895" style="fill: #0000ff; stroke: #000000"/>
     <use xlink:href="#m19cf200cce" x="98.350385" y="261.193307" style="fill: #0000ff; stroke: #000000"/>
     <use xlink:href="#m19cf200cce" x="251.861742" y="19.322119" style="fill: #0000ff; stroke: #000000"/>
     <use xlink:href="#m19cf200cce" x="251.858024" y="19.320834" style="fill: #0000ff; stroke: #000000"/>
     <use xlink:href="#m19cf200cce" x="251.862144" y="19.32169" style="fill: #0000ff; stroke: #000000"/>
     <use xlink:href="#m19cf200cce" x="251.861742" y="19.322119" style="fill: #0000ff; stroke: #000000"/>
     <use xlink:href="#m19cf200cce" x="89.017869" y="238.938616" style="fill: #0000ff; stroke: #000000"/>
     <use xlink:href="#m19cf200cce" x="89.30545" y="238.510872" style="fill: #0000ff; stroke: #000000"/>
     <use xlink:href="#m19cf200cce" x="89.137097" y="238.934762" style="fill: #0000ff; stroke: #000000"/>
     <use xlink:href="#m19cf200cce" x="89.019725" y="238.9399" style="fill: #0000ff; stroke: #000000"/>
     <use xlink:href="#m19cf200cce" x="85.469424" y="255.377012" style="fill: #0000ff; stroke: #000000"/>
     <use xlink:href="#m19cf200cce" x="85.977946" y="254.804546" style="fill: #0000ff; stroke: #000000"/>
     <use xlink:href="#m19cf200cce" x="85.673416" y="255.361598" style="fill: #0000ff; stroke: #000000"/>
     <use xlink:href="#m19cf200cce" x="85.455649" y="255.395424" style="fill: #0000ff; stroke: #000000"/>
     <use xlink:href="#m19cf200cce" x="119.604788" y="261.210434" style="fill: #0000ff; stroke: #000000"/>
     <use xlink:href="#m19cf200cce" x="120.300539" y="260.460704" style="fill: #0000ff; stroke: #000000"/>
     <use xlink:href="#m19cf200cce" x="119.804578" y="261.19502" style="fill: #0000ff; stroke: #000000"/>
     <use xlink:href="#m19cf200cce" x="119.601207" y="261.216" style="fill: #0000ff; stroke: #000000"/>
     <use xlink:href="#m19cf200cce" x="222.429452" y="19.317409" style="fill: #0000ff; stroke: #000000"/>
     <use xlink:href="#m19cf200cce" x="222.429452" y="19.317409" style="fill: #0000ff; stroke: #000000"/>
     <use xlink:href="#m19cf200cce" x="222.429452" y="19.317409" style="fill: #0000ff; stroke: #000000"/>
     <use xlink:href="#m19cf200cce" x="222.429452" y="19.317409" style="fill: #0000ff; stroke: #000000"/>
     <use xlink:href="#m19cf200cce" x="69.905035" y="238.932621" style="fill: #0000ff; stroke: #000000"/>
     <use xlink:href="#m19cf200cce" x="70.159907" y="238.52072" style="fill: #0000ff; stroke: #000000"/>
     <use xlink:href="#m19cf200cce" x="70.016804" y="238.936047" style="fill: #0000ff; stroke: #000000"/>
     <use xlink:href="#m19cf200cce" x="69.913618" y="238.917635" style="fill: #0000ff; stroke: #000000"/>
     <use xlink:href="#m19cf200cce" x="67.120842" y="255.3753" style="fill: #0000ff; stroke: #000000"/>
     <use xlink:href="#m19cf200cce" x="67.600744" y="254.801549" style="fill: #0000ff; stroke: #000000"/>
     <use xlink:href="#m19cf200cce" x="67.32636" y="255.354747" style="fill: #0000ff; stroke: #000000"/>
     <use xlink:href="#m19cf200cce" x="67.11907" y="255.377012" style="fill: #0000ff; stroke: #000000"/>
     <use xlink:href="#m19cf200cce" x="101.528859" y="261.212575" style="fill: #0000ff; stroke: #000000"/>
     <use xlink:href="#m19cf200cce" x="102.194197" y="260.455994" style="fill: #0000ff; stroke: #000000"/>
     <use xlink:href="#m19cf200cce" x="101.732808" y="261.192879" style="fill: #0000ff; stroke: #000000"/>
     <use xlink:href="#m19cf200cce" x="101.533155" y="261.206152" style="fill: #0000ff; stroke: #000000"/>
     <use xlink:href="#m19cf200cce" x="232.624842" y="19.322119" style="fill: #0000ff; stroke: #000000"/>
     <use xlink:href="#m19cf200cce" x="232.62601" y="19.320834" style="fill: #0000ff; stroke: #000000"/>
     <use xlink:href="#m19cf200cce" x="232.630545" y="19.321262" style="fill: #0000ff; stroke: #000000"/>
     <use xlink:href="#m19cf200cce" x="232.624842" y="19.322119" style="fill: #0000ff; stroke: #000000"/>
     <use xlink:href="#m19cf200cce" x="76.525835" y="238.938616" style="fill: #0000ff; stroke: #000000"/>
     <use xlink:href="#m19cf200cce" x="76.803343" y="238.507874" style="fill: #0000ff; stroke: #000000"/>
     <use xlink:href="#m19cf200cce" x="76.644945" y="238.934762" style="fill: #0000ff; stroke: #000000"/>
     <use xlink:href="#m19cf200cce" x="76.52453" y="238.9399" style="fill: #0000ff; stroke: #000000"/>
     <use xlink:href="#m19cf200cce" x="73.475738" y="255.379581" style="fill: #0000ff; stroke: #000000"/>
     <use xlink:href="#m19cf200cce" x="73.966251" y="254.807543" style="fill: #0000ff; stroke: #000000"/>
     <use xlink:href="#m19cf200cce" x="73.683388" y="255.357316" style="fill: #0000ff; stroke: #000000"/>
     <use xlink:href="#m19cf200cce" x="73.463428" y="255.397136" style="fill: #0000ff; stroke: #000000"/>
     <use xlink:href="#m19cf200cce" x="107.796262" y="261.210006" style="fill: #0000ff; stroke: #000000"/>
     <use xlink:href="#m19cf200cce" x="108.472485" y="260.457278" style="fill: #0000ff; stroke: #000000"/>
     <use xlink:href="#m19cf200cce" x="107.993653" y="261.198873" style="fill: #0000ff; stroke: #000000"/>
     <use xlink:href="#m19cf200cce" x="107.792357" y="261.216" style="fill: #0000ff; stroke: #000000"/>
     <use xlink:href="#m19cf200cce" x="235.876984" y="19.304135" style="fill: #0000ff; stroke: #000000"/>
     <use xlink:href="#m19cf200cce" x="235.879497" y="19.296" style="fill: #0000ff; stroke: #000000"/>
     <use xlink:href="#m19cf200cce" x="235.877375" y="19.303707" style="fill: #0000ff; stroke: #000000"/>
     <use xlink:href="#m19cf200cce" x="235.876984" y="19.304135" style="fill: #0000ff; stroke: #000000"/>
     <use xlink:href="#m19cf200cce" x="78.639634" y="238.921061" style="fill: #0000ff; stroke: #000000"/>
     <use xlink:href="#m19cf200cce" x="78.906238" y="238.503165" style="fill: #0000ff; stroke: #000000"/>
     <use xlink:href="#m19cf200cce" x="78.755569" y="238.917207" style="fill: #0000ff; stroke: #000000"/>
     <use xlink:href="#m19cf200cce" x="78.64037" y="238.917207" style="fill: #0000ff; stroke: #000000"/>
     <use xlink:href="#m19cf200cce" x="75.501845" y="255.368449" style="fill: #0000ff; stroke: #000000"/>
     <use xlink:href="#m19cf200cce" x="76.003982" y="254.785278" style="fill: #0000ff; stroke: #000000"/>
     <use xlink:href="#m19cf200cce" x="75.711521" y="255.341474" style="fill: #0000ff; stroke: #000000"/>
     <use xlink:href="#m19cf200cce" x="75.509533" y="255.36117" style="fill: #0000ff; stroke: #000000"/>
     <use xlink:href="#m19cf200cce" x="109.795441" y="261.194591" style="fill: #0000ff; stroke: #000000"/>
     <use xlink:href="#m19cf200cce" x="110.479406" y="260.433301" style="fill: #0000ff; stroke: #000000"/>
     <use xlink:href="#m19cf200cce" x="109.996795" y="261.174895" style="fill: #0000ff; stroke: #000000"/>
     <use xlink:href="#m19cf200cce" x="109.793908" y="261.193307" style="fill: #0000ff; stroke: #000000"/>
     <use xlink:href="#m19cf200cce" x="270.487947" y="19.322119" style="fill: #0000ff; stroke: #000000"/>
     <use xlink:href="#m19cf200cce" x="270.489192" y="19.320834" style="fill: #0000ff; stroke: #000000"/>
     <use xlink:href="#m19cf200cce" x="270.488362" y="19.32169" style="fill: #0000ff; stroke: #000000"/>
     <use xlink:href="#m19cf200cce" x="270.487947" y="19.322119" style="fill: #0000ff; stroke: #000000"/>
     <use xlink:href="#m19cf200cce" x="101.125927" y="238.938616" style="fill: #0000ff; stroke: #000000"/>
     <use xlink:href="#m19cf200cce" x="101.423019" y="238.510872" style="fill: #0000ff; stroke: #000000"/>
     <use xlink:href="#m19cf200cce" x="101.242069" y="238.934762" style="fill: #0000ff; stroke: #000000"/>
     <use xlink:href="#m19cf200cce" x="101.124544" y="238.9399" style="fill: #0000ff; stroke: #000000"/>
     <use xlink:href="#m19cf200cce" x="97.082717" y="255.377012" style="fill: #0000ff; stroke: #000000"/>
     <use xlink:href="#m19cf200cce" x="97.608246" y="254.804546" style="fill: #0000ff; stroke: #000000"/>
     <use xlink:href="#m19cf200cce" x="97.287166" y="255.361598" style="fill: #0000ff; stroke: #000000"/>
     <use xlink:href="#m19cf200cce" x="97.068395" y="255.395424" style="fill: #0000ff; stroke: #000000"/>
     <use xlink:href="#m19cf200cce" x="131.047801" y="261.210434" style="fill: #0000ff; stroke: #000000"/>
     <use xlink:href="#m19cf200cce" x="131.768863" y="260.460704" style="fill: #0000ff; stroke: #000000"/>
     <use xlink:href="#m19cf200cce" x="131.251075" y="261.19502" style="fill: #0000ff; stroke: #000000"/>
     <use xlink:href="#m19cf200cce" x="131.044055" y="261.216" style="fill: #0000ff; stroke: #000000"/>
     <use xlink:href="#m19cf200cce" x="241.060722" y="19.317409" style="fill: #0000ff; stroke: #000000"/>
     <use xlink:href="#m19cf200cce" x="241.060722" y="19.317409" style="fill: #0000ff; stroke: #000000"/>
     <use xlink:href="#m19cf200cce" x="241.065647" y="19.317409" style="fill: #0000ff; stroke: #000000"/>
     <use xlink:href="#m19cf200cce" x="241.060722" y="19.317409" style="fill: #0000ff; stroke: #000000"/>
     <use xlink:href="#m19cf200cce" x="82.006871" y="238.932621" style="fill: #0000ff; stroke: #000000"/>
     <use xlink:href="#m19cf200cce" x="82.27398" y="238.52072" style="fill: #0000ff; stroke: #000000"/>
     <use xlink:href="#m19cf200cce" x="82.118538" y="238.936047" style="fill: #0000ff; stroke: #000000"/>
     <use xlink:href="#m19cf200cce" x="82.015899" y="238.917635" style="fill: #0000ff; stroke: #000000"/>
     <use xlink:href="#m19cf200cce" x="78.737257" y="255.3753" style="fill: #0000ff; stroke: #000000"/>
     <use xlink:href="#m19cf200cce" x="79.237284" y="254.801549" style="fill: #0000ff; stroke: #000000"/>
     <use xlink:href="#m19cf200cce" x="78.943385" y="255.354747" style="fill: #0000ff; stroke: #000000"/>
     <use xlink:href="#m19cf200cce" x="78.735434" y="255.377012" style="fill: #0000ff; stroke: #000000"/>
     <use xlink:href="#m19cf200cce" x="112.971809" y="261.212575" style="fill: #0000ff; stroke: #000000"/>
     <use xlink:href="#m19cf200cce" x="113.662661" y="260.455994" style="fill: #0000ff; stroke: #000000"/>
     <use xlink:href="#m19cf200cce" x="113.176343" y="261.192879" style="fill: #0000ff; stroke: #000000"/>
     <use xlink:href="#m19cf200cce" x="112.976296" y="261.206152" style="fill: #0000ff; stroke: #000000"/>
     <use xlink:href="#m19cf200cce" x="251.260897" y="19.322119" style="fill: #0000ff; stroke: #000000"/>
     <use xlink:href="#m19cf200cce" x="251.257178" y="19.320834" style="fill: #0000ff; stroke: #000000"/>
     <use xlink:href="#m19cf200cce" x="251.261701" y="19.321262" style="fill: #0000ff; stroke: #000000"/>
     <use xlink:href="#m19cf200cce" x="251.260897" y="19.322119" style="fill: #0000ff; stroke: #000000"/>
     <use xlink:href="#m19cf200cce" x="88.627493" y="238.938616" style="fill: #0000ff; stroke: #000000"/>
     <use xlink:href="#m19cf200cce" x="88.917798" y="238.507874" style="fill: #0000ff; stroke: #000000"/>
     <use xlink:href="#m19cf200cce" x="88.746717" y="238.934762" style="fill: #0000ff; stroke: #000000"/>
     <use xlink:href="#m19cf200cce" x="88.62935" y="238.9399" style="fill: #0000ff; stroke: #000000"/>
     <use xlink:href="#m19cf200cce" x="85.095096" y="255.379581" style="fill: #0000ff; stroke: #000000"/>
     <use xlink:href="#m19cf200cce" x="85.599537" y="254.807543" style="fill: #0000ff; stroke: #000000"/>
     <use xlink:href="#m19cf200cce" x="85.300337" y="255.357316" style="fill: #0000ff; stroke: #000000"/>
     <use xlink:href="#m19cf200cce" x="85.082264" y="255.397136" style="fill: #0000ff; stroke: #000000"/>
     <use xlink:href="#m19cf200cce" x="119.239288" y="261.210006" style="fill: #0000ff; stroke: #000000"/>
     <use xlink:href="#m19cf200cce" x="119.937879" y="260.457278" style="fill: #0000ff; stroke: #000000"/>
     <use xlink:href="#m19cf200cce" x="119.437011" y="261.198873" style="fill: #0000ff; stroke: #000000"/>
     <use xlink:href="#m19cf200cce" x="119.235205" y="261.216" style="fill: #0000ff; stroke: #000000"/>
     <use xlink:href="#m19cf200cce" x="278.843581" y="19.304135" style="fill: #0000ff; stroke: #000000"/>
     <use xlink:href="#m19cf200cce" x="278.851577" y="19.296" style="fill: #0000ff; stroke: #000000"/>
     <use xlink:href="#m19cf200cce" x="278.848927" y="19.303707" style="fill: #0000ff; stroke: #000000"/>
     <use xlink:href="#m19cf200cce" x="278.843581" y="19.304135" style="fill: #0000ff; stroke: #000000"/>
     <use xlink:href="#m19cf200cce" x="106.555926" y="238.921061" style="fill: #0000ff; stroke: #000000"/>
     <use xlink:href="#m19cf200cce" x="106.854372" y="238.503165" style="fill: #0000ff; stroke: #000000"/>
     <use xlink:href="#m19cf200cce" x="106.675324" y="238.917207" style="fill: #0000ff; stroke: #000000"/>
     <use xlink:href="#m19cf200cce" x="106.560125" y="238.917207" style="fill: #0000ff; stroke: #000000"/>
     <use xlink:href="#m19cf200cce" x="102.294071" y="255.368449" style="fill: #0000ff; stroke: #000000"/>
     <use xlink:href="#m19cf200cce" x="102.836177" y="254.785278" style="fill: #0000ff; stroke: #000000"/>
     <use xlink:href="#m19cf200cce" x="102.505596" y="255.341474" style="fill: #0000ff; stroke: #000000"/>
     <use xlink:href="#m19cf200cce" x="102.299187" y="255.36117" style="fill: #0000ff; stroke: #000000"/>
     <use xlink:href="#m19cf200cce" x="136.185332" y="261.194591" style="fill: #0000ff; stroke: #000000"/>
     <use xlink:href="#m19cf200cce" x="136.924499" y="260.433301" style="fill: #0000ff; stroke: #000000"/>
     <use xlink:href="#m19cf200cce" x="136.39106" y="261.174895" style="fill: #0000ff; stroke: #000000"/>
     <use xlink:href="#m19cf200cce" x="136.186912" y="261.193307" style="fill: #0000ff; stroke: #000000"/>
     <use xlink:href="#m19cf200cce" x="313.453312" y="19.322119" style="fill: #0000ff; stroke: #000000"/>
     <use xlink:href="#m19cf200cce" x="313.454646" y="19.320834" style="fill: #0000ff; stroke: #000000"/>
     <use xlink:href="#m19cf200cce" x="313.453757" y="19.32169" style="fill: #0000ff; stroke: #000000"/>
     <use xlink:href="#m19cf200cce" x="313.453312" y="19.322119" style="fill: #0000ff; stroke: #000000"/>
     <use xlink:href="#m19cf200cce" x="129.041016" y="238.938616" style="fill: #0000ff; stroke: #000000"/>
     <use xlink:href="#m19cf200cce" x="129.370624" y="238.510872" style="fill: #0000ff; stroke: #000000"/>
     <use xlink:href="#m19cf200cce" x="129.160622" y="238.934762" style="fill: #0000ff; stroke: #000000"/>
     <use xlink:href="#m19cf200cce" x="129.039545" y="238.9399" style="fill: #0000ff; stroke: #000000"/>
     <use xlink:href="#m19cf200cce" x="123.874356" y="255.377012" style="fill: #0000ff; stroke: #000000"/>
     <use xlink:href="#m19cf200cce" x="124.439121" y="254.804546" style="fill: #0000ff; stroke: #000000"/>
     <use xlink:href="#m19cf200cce" x="124.076791" y="255.361598" style="fill: #0000ff; stroke: #000000"/>
     <use xlink:href="#m19cf200cce" x="123.858773" y="255.395424" style="fill: #0000ff; stroke: #000000"/>
     <use xlink:href="#m19cf200cce" x="157.439631" y="261.210434" style="fill: #0000ff; stroke: #000000"/>
     <use xlink:href="#m19cf200cce" x="158.209047" y="260.460704" style="fill: #0000ff; stroke: #000000"/>
     <use xlink:href="#m19cf200cce" x="157.640937" y="261.19502" style="fill: #0000ff; stroke: #000000"/>
     <use xlink:href="#m19cf200cce" x="157.435504" y="261.216" style="fill: #0000ff; stroke: #000000"/>
     <use xlink:href="#m19cf200cce" x="284.031335" y="19.317409" style="fill: #0000ff; stroke: #000000"/>
     <use xlink:href="#m19cf200cce" x="284.031335" y="19.317409" style="fill: #0000ff; stroke: #000000"/>
     <use xlink:href="#m19cf200cce" x="284.031335" y="19.317409" style="fill: #0000ff; stroke: #000000"/>
     <use xlink:href="#m19cf200cce" x="284.031335" y="19.317409" style="fill: #0000ff; stroke: #000000"/>
     <use xlink:href="#m19cf200cce" x="109.92557" y="238.932621" style="fill: #0000ff; stroke: #000000"/>
     <use xlink:href="#m19cf200cce" x="110.22091" y="238.52072" style="fill: #0000ff; stroke: #000000"/>
     <use xlink:href="#m19cf200cce" x="110.037003" y="238.936047" style="fill: #0000ff; stroke: #000000"/>
     <use xlink:href="#m19cf200cce" x="109.935626" y="238.917635" style="fill: #0000ff; stroke: #000000"/>
     <use xlink:href="#m19cf200cce" x="105.529013" y="255.3753" style="fill: #0000ff; stroke: #000000"/>
     <use xlink:href="#m19cf200cce" x="106.065289" y="254.801549" style="fill: #0000ff; stroke: #000000"/>
     <use xlink:href="#m19cf200cce" x="105.73655" y="255.354747" style="fill: #0000ff; stroke: #000000"/>
     <use xlink:href="#m19cf200cce" x="105.527073" y="255.377012" style="fill: #0000ff; stroke: #000000"/>
     <use xlink:href="#m19cf200cce" x="139.363493" y="261.212575" style="fill: #0000ff; stroke: #000000"/>
     <use xlink:href="#m19cf200cce" x="140.103168" y="260.455994" style="fill: #0000ff; stroke: #000000"/>
     <use xlink:href="#m19cf200cce" x="139.569376" y="261.192879" style="fill: #0000ff; stroke: #000000"/>
     <use xlink:href="#m19cf200cce" x="139.368419" y="261.206152" style="fill: #0000ff; stroke: #000000"/>
     <use xlink:href="#m19cf200cce" x="294.226262" y="19.322119" style="fill: #0000ff; stroke: #000000"/>
     <use xlink:href="#m19cf200cce" x="294.227556" y="19.320834" style="fill: #0000ff; stroke: #000000"/>
     <use xlink:href="#m19cf200cce" x="294.227125" y="19.321262" style="fill: #0000ff; stroke: #000000"/>
     <use xlink:href="#m19cf200cce" x="294.226262" y="19.322119" style="fill: #0000ff; stroke: #000000"/>
     <use xlink:href="#m19cf200cce" x="116.548982" y="238.938616" style="fill: #0000ff; stroke: #000000"/>
     <use xlink:href="#m19cf200cce" x="116.868811" y="238.507874" style="fill: #0000ff; stroke: #000000"/>
     <use xlink:href="#m19cf200cce" x="116.66847" y="238.934762" style="fill: #0000ff; stroke: #000000"/>
     <use xlink:href="#m19cf200cce" x="116.54755" y="238.9399" style="fill: #0000ff; stroke: #000000"/>
     <use xlink:href="#m19cf200cce" x="111.883488" y="255.379581" style="fill: #0000ff; stroke: #000000"/>
     <use xlink:href="#m19cf200cce" x="112.430206" y="254.807543" style="fill: #0000ff; stroke: #000000"/>
     <use xlink:href="#m19cf200cce" x="112.093326" y="255.357316" style="fill: #0000ff; stroke: #000000"/>
     <use xlink:href="#m19cf200cce" x="111.869454" y="255.397136" style="fill: #0000ff; stroke: #000000"/>
     <use xlink:href="#m19cf200cce" x="145.631148" y="261.210006" style="fill: #0000ff; stroke: #000000"/>
     <use xlink:href="#m19cf200cce" x="146.381329" y="260.457278" style="fill: #0000ff; stroke: #000000"/>
     <use xlink:href="#m19cf200cce" x="145.829633" y="261.198873" style="fill: #0000ff; stroke: #000000"/>
     <use xlink:href="#m19cf200cce" x="145.626654" y="261.216" style="fill: #0000ff; stroke: #000000"/>
     <use xlink:href="#m19cf200cce" x="353.9317" y="19.304135" style="fill: #0000ff; stroke: #000000"/>
     <use xlink:href="#m19cf200cce" x="353.935745" y="19.296" style="fill: #0000ff; stroke: #000000"/>
     <use xlink:href="#m19cf200cce" x="353.932172" y="19.303707" style="fill: #0000ff; stroke: #000000"/>
     <use xlink:href="#m19cf200cce" x="353.9317" y="19.304135" style="fill: #0000ff; stroke: #000000"/>
     <use xlink:href="#m19cf200cce" x="155.342238" y="238.921061" style="fill: #0000ff; stroke: #000000"/>
     <use xlink:href="#m19cf200cce" x="155.690732" y="238.503165" style="fill: #0000ff; stroke: #000000"/>
     <use xlink:href="#m19cf200cce" x="155.462098" y="238.917207" style="fill: #0000ff; stroke: #000000"/>
     <use xlink:href="#m19cf200cce" x="155.346899" y="238.917207" style="fill: #0000ff; stroke: #000000"/>
     <use xlink:href="#m19cf200cce" x="149.110608" y="255.368449" style="fill: #0000ff; stroke: #000000"/>
     <use xlink:href="#m19cf200cce" x="149.71948" y="254.785278" style="fill: #0000ff; stroke: #000000"/>
     <use xlink:href="#m19cf200cce" x="149.325363" y="255.341474" style="fill: #0000ff; stroke: #000000"/>
     <use xlink:href="#m19cf200cce" x="149.116595" y="255.36117" style="fill: #0000ff; stroke: #000000"/>
     <use xlink:href="#m19cf200cce" x="182.301092" y="261.194591" style="fill: #0000ff; stroke: #000000"/>
     <use xlink:href="#m19cf200cce" x="183.131427" y="260.433301" style="fill: #0000ff; stroke: #000000"/>
     <use xlink:href="#m19cf200cce" x="182.509179" y="261.174895" style="fill: #0000ff; stroke: #000000"/>
     <use xlink:href="#m19cf200cce" x="182.302825" y="261.193307" style="fill: #0000ff; stroke: #000000"/>
     <use xlink:href="#m19cf200cce" x="388.539277" y="19.322119" style="fill: #0000ff; stroke: #000000"/>
     <use xlink:href="#m19cf200cce" x="388.535839" y="19.320834" style="fill: #0000ff; stroke: #000000"/>
     <use xlink:href="#m19cf200cce" x="388.539773" y="19.32169" style="fill: #0000ff; stroke: #000000"/>
     <use xlink:href="#m19cf200cce" x="388.539277" y="19.322119" style="fill: #0000ff; stroke: #000000"/>
     <use xlink:href="#m19cf200cce" x="177.822025" y="238.938616" style="fill: #0000ff; stroke: #000000"/>
     <use xlink:href="#m19cf200cce" x="178.202858" y="238.510872" style="fill: #0000ff; stroke: #000000"/>
     <use xlink:href="#m19cf200cce" x="177.942093" y="238.934762" style="fill: #0000ff; stroke: #000000"/>
     <use xlink:href="#m19cf200cce" x="177.820401" y="238.9399" style="fill: #0000ff; stroke: #000000"/>
     <use xlink:href="#m19cf200cce" x="170.689866" y="255.377012" style="fill: #0000ff; stroke: #000000"/>
     <use xlink:href="#m19cf200cce" x="171.320116" y="254.804546" style="fill: #0000ff; stroke: #000000"/>
     <use xlink:href="#m19cf200cce" x="170.894148" y="255.361598" style="fill: #0000ff; stroke: #000000"/>
     <use xlink:href="#m19cf200cce" x="170.672078" y="255.395424" style="fill: #0000ff; stroke: #000000"/>
     <use xlink:href="#m19cf200cce" x="203.553494" y="261.210434" style="fill: #0000ff; stroke: #000000"/>
     <use xlink:href="#m19cf200cce" x="204.412693" y="260.460704" style="fill: #0000ff; stroke: #000000"/>
     <use xlink:href="#m19cf200cce" x="203.756645" y="261.19502" style="fill: #0000ff; stroke: #000000"/>
     <use xlink:href="#m19cf200cce" x="203.545675" y="261.216" style="fill: #0000ff; stroke: #000000"/>
     <use xlink:href="#m19cf200cce" x="359.112938" y="19.317409" style="fill: #0000ff; stroke: #000000"/>
     <use xlink:href="#m19cf200cce" x="359.112938" y="19.317409" style="fill: #0000ff; stroke: #000000"/>
     <use xlink:href="#m19cf200cce" x="359.117863" y="19.317409" style="fill: #0000ff; stroke: #000000"/>
     <use xlink:href="#m19cf200cce" x="359.112938" y="19.317409" style="fill: #0000ff; stroke: #000000"/>
     <use xlink:href="#m19cf200cce" x="158.707297" y="238.932621" style="fill: #0000ff; stroke: #000000"/>
     <use xlink:href="#m19cf200cce" x="159.051965" y="238.52072" style="fill: #0000ff; stroke: #000000"/>
     <use xlink:href="#m19cf200cce" x="158.82152" y="238.936047" style="fill: #0000ff; stroke: #000000"/>
     <use xlink:href="#m19cf200cce" x="158.722348" y="238.917635" style="fill: #0000ff; stroke: #000000"/>
     <use xlink:href="#m19cf200cce" x="152.344729" y="255.3753" style="fill: #0000ff; stroke: #000000"/>
     <use xlink:href="#m19cf200cce" x="152.949718" y="254.801549" style="fill: #0000ff; stroke: #000000"/>
     <use xlink:href="#m19cf200cce" x="152.551656" y="255.354747" style="fill: #0000ff; stroke: #000000"/>
     <use xlink:href="#m19cf200cce" x="152.342583" y="255.377012" style="fill: #0000ff; stroke: #000000"/>
     <use xlink:href="#m19cf200cce" x="185.477099" y="261.212575" style="fill: #0000ff; stroke: #000000"/>
     <use xlink:href="#m19cf200cce" x="186.307377" y="260.455994" style="fill: #0000ff; stroke: #000000"/>
     <use xlink:href="#m19cf200cce" x="185.685341" y="261.192879" style="fill: #0000ff; stroke: #000000"/>
     <use xlink:href="#m19cf200cce" x="185.482794" y="261.206152" style="fill: #0000ff; stroke: #000000"/>
     <use xlink:href="#m19cf200cce" x="369.307302" y="19.322119" style="fill: #0000ff; stroke: #000000"/>
     <use xlink:href="#m19cf200cce" x="369.30875" y="19.320834" style="fill: #0000ff; stroke: #000000"/>
     <use xlink:href="#m19cf200cce" x="369.313192" y="19.321262" style="fill: #0000ff; stroke: #000000"/>
     <use xlink:href="#m19cf200cce" x="369.307302" y="19.322119" style="fill: #0000ff; stroke: #000000"/>
     <use xlink:href="#m19cf200cce" x="165.329991" y="238.938616" style="fill: #0000ff; stroke: #000000"/>
     <use xlink:href="#m19cf200cce" x="165.698201" y="238.507874" style="fill: #0000ff; stroke: #000000"/>
     <use xlink:href="#m19cf200cce" x="165.446741" y="238.934762" style="fill: #0000ff; stroke: #000000"/>
     <use xlink:href="#m19cf200cce" x="165.328406" y="238.9399" style="fill: #0000ff; stroke: #000000"/>
     <use xlink:href="#m19cf200cce" x="158.698691" y="255.379581" style="fill: #0000ff; stroke: #000000"/>
     <use xlink:href="#m19cf200cce" x="159.313918" y="254.807543" style="fill: #0000ff; stroke: #000000"/>
     <use xlink:href="#m19cf200cce" x="158.911196" y="255.357316" style="fill: #0000ff; stroke: #000000"/>
     <use xlink:href="#m19cf200cce" x="158.682554" y="255.397136" style="fill: #0000ff; stroke: #000000"/>
     <use xlink:href="#m19cf200cce" x="191.742037" y="261.210006" style="fill: #0000ff; stroke: #000000"/>
     <use xlink:href="#m19cf200cce" x="192.582354" y="260.457278" style="fill: #0000ff; stroke: #000000"/>
     <use xlink:href="#m19cf200cce" x="191.941855" y="261.198873" style="fill: #0000ff; stroke: #000000"/>
     <use xlink:href="#m19cf200cce" x="191.736825" y="261.216" style="fill: #0000ff; stroke: #000000"/>
    </g>
   </g>
  </g>
 </g>
</svg>
