<?xml version="1.0" encoding="utf-8" standalone="no"?>
<!DOCTYPE svg PUBLIC "-//W3C//DTD SVG 1.1//EN"
  "http://www.w3.org/Graphics/SVG/1.1/DTD/svg11.dtd">
<svg xmlns:xlink="http://www.w3.org/1999/xlink" width="411.9725pt" height="314.7395pt" viewBox="0 0 411.9725 314.7395" xmlns="http://www.w3.org/2000/svg" version="1.1">
 <metadata>
  <rdf:RDF xmlns:dc="http://purl.org/dc/elements/1.1/" xmlns:cc="http://creativecommons.org/ns#" xmlns:rdf="http://www.w3.org/1999/02/22-rdf-syntax-ns#">
   <cc:Work>
    <dc:type rdf:resource="http://purl.org/dc/dcmitype/StillImage"/>
    <dc:date>2023-10-10T13:24:23.145189</dc:date>
    <dc:format>image/svg+xml</dc:format>
    <dc:creator>
     <cc:Agent>
      <dc:title>Matplotlib v3.7.2, https://matplotlib.org/</dc:title>
     </cc:Agent>
    </dc:creator>
   </cc:Work>
  </rdf:RDF>
 </metadata>
 <defs>
  <style type="text/css">*{stroke-linejoin: round; stroke-linecap: butt}</style>
 </defs>
 <g id="figure_1">
  <g id="patch_1">
   <path d="M 0 314.7395 
L 411.9725 314.7395 
L 411.9725 0 
L 0 0 
z
" style="fill: #ffffff"/>
  </g>
  <g id="axes_1">
   <g id="patch_2">
    <path d="M 47.6525 273.312 
L 404.7725 273.312 
L 404.7725 7.2 
L 47.6525 7.2 
z
" style="fill: #ffffff"/>
   </g>
   <g id="matplotlib.axis_1">
    <g id="xtick_1">
     <g id="line2d_1">
      <defs>
       <path id="m903eaeac28" d="M 0 0 
L 0 3.5 
" style="stroke: #000000; stroke-width: 0.8"/>
      </defs>
      <g>
       <use xlink:href="#m903eaeac28" x="110.986858" y="273.312" style="stroke: #000000; stroke-width: 0.8"/>
      </g>
     </g>
     <g id="text_1">
      <!-- 1.4 -->
      <g transform="translate(103.035296 287.910437) scale(0.1 -0.1)">
       <defs>
        <path id="DejaVuSans-31" d="M 794 531 
L 1825 531 
L 1825 4091 
L 703 3866 
L 703 4441 
L 1819 4666 
L 2450 4666 
L 2450 531 
L 3481 531 
L 3481 0 
L 794 0 
L 794 531 
z
" transform="scale(0.015625)"/>
        <path id="DejaVuSans-2e" d="M 684 794 
L 1344 794 
L 1344 0 
L 684 0 
L 684 794 
z
" transform="scale(0.015625)"/>
        <path id="DejaVuSans-34" d="M 2419 4116 
L 825 1625 
L 2419 1625 
L 2419 4116 
z
M 2253 4666 
L 3047 4666 
L 3047 1625 
L 3713 1625 
L 3713 1100 
L 3047 1100 
L 3047 0 
L 2419 0 
L 2419 1100 
L 313 1100 
L 313 1709 
L 2253 4666 
z
" transform="scale(0.015625)"/>
       </defs>
       <use xlink:href="#DejaVuSans-31"/>
       <use xlink:href="#DejaVuSans-2e" x="63.623047"/>
       <use xlink:href="#DejaVuSans-34" x="95.410156"/>
      </g>
     </g>
    </g>
    <g id="xtick_2">
     <g id="line2d_2">
      <g>
       <use xlink:href="#m903eaeac28" x="189.554549" y="273.312" style="stroke: #000000; stroke-width: 0.8"/>
      </g>
     </g>
     <g id="text_2">
      <!-- 1.6 -->
      <g transform="translate(181.602986 287.910437) scale(0.1 -0.1)">
       <defs>
        <path id="DejaVuSans-36" d="M 2113 2584 
Q 1688 2584 1439 2293 
Q 1191 2003 1191 1497 
Q 1191 994 1439 701 
Q 1688 409 2113 409 
Q 2538 409 2786 701 
Q 3034 994 3034 1497 
Q 3034 2003 2786 2293 
Q 2538 2584 2113 2584 
z
M 3366 4563 
L 3366 3988 
Q 3128 4100 2886 4159 
Q 2644 4219 2406 4219 
Q 1781 4219 1451 3797 
Q 1122 3375 1075 2522 
Q 1259 2794 1537 2939 
Q 1816 3084 2150 3084 
Q 2853 3084 3261 2657 
Q 3669 2231 3669 1497 
Q 3669 778 3244 343 
Q 2819 -91 2113 -91 
Q 1303 -91 875 529 
Q 447 1150 447 2328 
Q 447 3434 972 4092 
Q 1497 4750 2381 4750 
Q 2619 4750 2861 4703 
Q 3103 4656 3366 4563 
z
" transform="scale(0.015625)"/>
       </defs>
       <use xlink:href="#DejaVuSans-31"/>
       <use xlink:href="#DejaVuSans-2e" x="63.623047"/>
       <use xlink:href="#DejaVuSans-36" x="95.410156"/>
      </g>
     </g>
    </g>
    <g id="xtick_3">
     <g id="line2d_3">
      <g>
       <use xlink:href="#m903eaeac28" x="268.12224" y="273.312" style="stroke: #000000; stroke-width: 0.8"/>
      </g>
     </g>
     <g id="text_3">
      <!-- 1.8 -->
      <g transform="translate(260.170677 287.910437) scale(0.1 -0.1)">
       <defs>
        <path id="DejaVuSans-38" d="M 2034 2216 
Q 1584 2216 1326 1975 
Q 1069 1734 1069 1313 
Q 1069 891 1326 650 
Q 1584 409 2034 409 
Q 2484 409 2743 651 
Q 3003 894 3003 1313 
Q 3003 1734 2745 1975 
Q 2488 2216 2034 2216 
z
M 1403 2484 
Q 997 2584 770 2862 
Q 544 3141 544 3541 
Q 544 4100 942 4425 
Q 1341 4750 2034 4750 
Q 2731 4750 3128 4425 
Q 3525 4100 3525 3541 
Q 3525 3141 3298 2862 
Q 3072 2584 2669 2484 
Q 3125 2378 3379 2068 
Q 3634 1759 3634 1313 
Q 3634 634 3220 271 
Q 2806 -91 2034 -91 
Q 1263 -91 848 271 
Q 434 634 434 1313 
Q 434 1759 690 2068 
Q 947 2378 1403 2484 
z
M 1172 3481 
Q 1172 3119 1398 2916 
Q 1625 2713 2034 2713 
Q 2441 2713 2670 2916 
Q 2900 3119 2900 3481 
Q 2900 3844 2670 4047 
Q 2441 4250 2034 4250 
Q 1625 4250 1398 4047 
Q 1172 3844 1172 3481 
z
" transform="scale(0.015625)"/>
       </defs>
       <use xlink:href="#DejaVuSans-31"/>
       <use xlink:href="#DejaVuSans-2e" x="63.623047"/>
       <use xlink:href="#DejaVuSans-38" x="95.410156"/>
      </g>
     </g>
    </g>
    <g id="xtick_4">
     <g id="line2d_4">
      <g>
       <use xlink:href="#m903eaeac28" x="346.68993" y="273.312" style="stroke: #000000; stroke-width: 0.8"/>
      </g>
     </g>
     <g id="text_4">
      <!-- 2.0 -->
      <g transform="translate(338.738368 287.910437) scale(0.1 -0.1)">
       <defs>
        <path id="DejaVuSans-32" d="M 1228 531 
L 3431 531 
L 3431 0 
L 469 0 
L 469 531 
Q 828 903 1448 1529 
Q 2069 2156 2228 2338 
Q 2531 2678 2651 2914 
Q 2772 3150 2772 3378 
Q 2772 3750 2511 3984 
Q 2250 4219 1831 4219 
Q 1534 4219 1204 4116 
Q 875 4013 500 3803 
L 500 4441 
Q 881 4594 1212 4672 
Q 1544 4750 1819 4750 
Q 2544 4750 2975 4387 
Q 3406 4025 3406 3419 
Q 3406 3131 3298 2873 
Q 3191 2616 2906 2266 
Q 2828 2175 2409 1742 
Q 1991 1309 1228 531 
z
" transform="scale(0.015625)"/>
        <path id="DejaVuSans-30" d="M 2034 4250 
Q 1547 4250 1301 3770 
Q 1056 3291 1056 2328 
Q 1056 1369 1301 889 
Q 1547 409 2034 409 
Q 2525 409 2770 889 
Q 3016 1369 3016 2328 
Q 3016 3291 2770 3770 
Q 2525 4250 2034 4250 
z
M 2034 4750 
Q 2819 4750 3233 4129 
Q 3647 3509 3647 2328 
Q 3647 1150 3233 529 
Q 2819 -91 2034 -91 
Q 1250 -91 836 529 
Q 422 1150 422 2328 
Q 422 3509 836 4129 
Q 1250 4750 2034 4750 
z
" transform="scale(0.015625)"/>
       </defs>
       <use xlink:href="#DejaVuSans-32"/>
       <use xlink:href="#DejaVuSans-2e" x="63.623047"/>
       <use xlink:href="#DejaVuSans-30" x="95.410156"/>
      </g>
     </g>
    </g>
    <g id="text_5">
     <!-- Energy [J] -->
     <g transform="translate(191.951875 304.627937) scale(0.14 -0.14)">
      <defs>
       <path id="DejaVuSans-45" d="M 628 4666 
L 3578 4666 
L 3578 4134 
L 1259 4134 
L 1259 2753 
L 3481 2753 
L 3481 2222 
L 1259 2222 
L 1259 531 
L 3634 531 
L 3634 0 
L 628 0 
L 628 4666 
z
" transform="scale(0.015625)"/>
       <path id="DejaVuSans-6e" d="M 3513 2113 
L 3513 0 
L 2938 0 
L 2938 2094 
Q 2938 2591 2744 2837 
Q 2550 3084 2163 3084 
Q 1697 3084 1428 2787 
Q 1159 2491 1159 1978 
L 1159 0 
L 581 0 
L 581 3500 
L 1159 3500 
L 1159 2956 
Q 1366 3272 1645 3428 
Q 1925 3584 2291 3584 
Q 2894 3584 3203 3211 
Q 3513 2838 3513 2113 
z
" transform="scale(0.015625)"/>
       <path id="DejaVuSans-65" d="M 3597 1894 
L 3597 1613 
L 953 1613 
Q 991 1019 1311 708 
Q 1631 397 2203 397 
Q 2534 397 2845 478 
Q 3156 559 3463 722 
L 3463 178 
Q 3153 47 2828 -22 
Q 2503 -91 2169 -91 
Q 1331 -91 842 396 
Q 353 884 353 1716 
Q 353 2575 817 3079 
Q 1281 3584 2069 3584 
Q 2775 3584 3186 3129 
Q 3597 2675 3597 1894 
z
M 3022 2063 
Q 3016 2534 2758 2815 
Q 2500 3097 2075 3097 
Q 1594 3097 1305 2825 
Q 1016 2553 972 2059 
L 3022 2063 
z
" transform="scale(0.015625)"/>
       <path id="DejaVuSans-72" d="M 2631 2963 
Q 2534 3019 2420 3045 
Q 2306 3072 2169 3072 
Q 1681 3072 1420 2755 
Q 1159 2438 1159 1844 
L 1159 0 
L 581 0 
L 581 3500 
L 1159 3500 
L 1159 2956 
Q 1341 3275 1631 3429 
Q 1922 3584 2338 3584 
Q 2397 3584 2469 3576 
Q 2541 3569 2628 3553 
L 2631 2963 
z
" transform="scale(0.015625)"/>
       <path id="DejaVuSans-67" d="M 2906 1791 
Q 2906 2416 2648 2759 
Q 2391 3103 1925 3103 
Q 1463 3103 1205 2759 
Q 947 2416 947 1791 
Q 947 1169 1205 825 
Q 1463 481 1925 481 
Q 2391 481 2648 825 
Q 2906 1169 2906 1791 
z
M 3481 434 
Q 3481 -459 3084 -895 
Q 2688 -1331 1869 -1331 
Q 1566 -1331 1297 -1286 
Q 1028 -1241 775 -1147 
L 775 -588 
Q 1028 -725 1275 -790 
Q 1522 -856 1778 -856 
Q 2344 -856 2625 -561 
Q 2906 -266 2906 331 
L 2906 616 
Q 2728 306 2450 153 
Q 2172 0 1784 0 
Q 1141 0 747 490 
Q 353 981 353 1791 
Q 353 2603 747 3093 
Q 1141 3584 1784 3584 
Q 2172 3584 2450 3431 
Q 2728 3278 2906 2969 
L 2906 3500 
L 3481 3500 
L 3481 434 
z
" transform="scale(0.015625)"/>
       <path id="DejaVuSans-79" d="M 2059 -325 
Q 1816 -950 1584 -1140 
Q 1353 -1331 966 -1331 
L 506 -1331 
L 506 -850 
L 844 -850 
Q 1081 -850 1212 -737 
Q 1344 -625 1503 -206 
L 1606 56 
L 191 3500 
L 800 3500 
L 1894 763 
L 2988 3500 
L 3597 3500 
L 2059 -325 
z
" transform="scale(0.015625)"/>
       <path id="DejaVuSans-20" transform="scale(0.015625)"/>
       <path id="DejaVuSans-5b" d="M 550 4863 
L 1875 4863 
L 1875 4416 
L 1125 4416 
L 1125 -397 
L 1875 -397 
L 1875 -844 
L 550 -844 
L 550 4863 
z
" transform="scale(0.015625)"/>
       <path id="DejaVuSans-4a" d="M 628 4666 
L 1259 4666 
L 1259 325 
Q 1259 -519 939 -900 
Q 619 -1281 -91 -1281 
L -331 -1281 
L -331 -750 
L -134 -750 
Q 284 -750 456 -515 
Q 628 -281 628 325 
L 628 4666 
z
" transform="scale(0.015625)"/>
       <path id="DejaVuSans-5d" d="M 1947 4863 
L 1947 -844 
L 622 -844 
L 622 -397 
L 1369 -397 
L 1369 4416 
L 622 4416 
L 622 4863 
L 1947 4863 
z
" transform="scale(0.015625)"/>
      </defs>
      <use xlink:href="#DejaVuSans-45"/>
      <use xlink:href="#DejaVuSans-6e" x="63.183594"/>
      <use xlink:href="#DejaVuSans-65" x="126.5625"/>
      <use xlink:href="#DejaVuSans-72" x="188.085938"/>
      <use xlink:href="#DejaVuSans-67" x="227.449219"/>
      <use xlink:href="#DejaVuSans-79" x="290.925781"/>
      <use xlink:href="#DejaVuSans-20" x="350.105469"/>
      <use xlink:href="#DejaVuSans-5b" x="381.892578"/>
      <use xlink:href="#DejaVuSans-4a" x="420.90625"/>
      <use xlink:href="#DejaVuSans-5d" x="450.398438"/>
     </g>
    </g>
   </g>
   <g id="matplotlib.axis_2">
    <g id="ytick_1">
     <g id="line2d_5">
      <defs>
       <path id="me362c50a74" d="M 0 0 
L -3.5 0 
" style="stroke: #000000; stroke-width: 0.8"/>
      </defs>
      <g>
       <use xlink:href="#me362c50a74" x="47.6525" y="234.288551" style="stroke: #000000; stroke-width: 0.8"/>
      </g>
     </g>
     <g id="text_6">
      <!-- 1.0 -->
      <g transform="translate(24.749375 238.08777) scale(0.1 -0.1)">
       <use xlink:href="#DejaVuSans-31"/>
       <use xlink:href="#DejaVuSans-2e" x="63.623047"/>
       <use xlink:href="#DejaVuSans-30" x="95.410156"/>
      </g>
     </g>
    </g>
    <g id="ytick_2">
     <g id="line2d_6">
      <g>
       <use xlink:href="#me362c50a74" x="47.6525" y="192.132736" style="stroke: #000000; stroke-width: 0.8"/>
      </g>
     </g>
     <g id="text_7">
      <!-- 1.1 -->
      <g transform="translate(24.749375 195.931955) scale(0.1 -0.1)">
       <use xlink:href="#DejaVuSans-31"/>
       <use xlink:href="#DejaVuSans-2e" x="63.623047"/>
       <use xlink:href="#DejaVuSans-31" x="95.410156"/>
      </g>
     </g>
    </g>
    <g id="ytick_3">
     <g id="line2d_7">
      <g>
       <use xlink:href="#me362c50a74" x="47.6525" y="149.97692" style="stroke: #000000; stroke-width: 0.8"/>
      </g>
     </g>
     <g id="text_8">
      <!-- 1.2 -->
      <g transform="translate(24.749375 153.776139) scale(0.1 -0.1)">
       <use xlink:href="#DejaVuSans-31"/>
       <use xlink:href="#DejaVuSans-2e" x="63.623047"/>
       <use xlink:href="#DejaVuSans-32" x="95.410156"/>
      </g>
     </g>
    </g>
    <g id="ytick_4">
     <g id="line2d_8">
      <g>
       <use xlink:href="#me362c50a74" x="47.6525" y="107.821105" style="stroke: #000000; stroke-width: 0.8"/>
      </g>
     </g>
     <g id="text_9">
      <!-- 1.3 -->
      <g transform="translate(24.749375 111.620324) scale(0.1 -0.1)">
       <defs>
        <path id="DejaVuSans-33" d="M 2597 2516 
Q 3050 2419 3304 2112 
Q 3559 1806 3559 1356 
Q 3559 666 3084 287 
Q 2609 -91 1734 -91 
Q 1441 -91 1130 -33 
Q 819 25 488 141 
L 488 750 
Q 750 597 1062 519 
Q 1375 441 1716 441 
Q 2309 441 2620 675 
Q 2931 909 2931 1356 
Q 2931 1769 2642 2001 
Q 2353 2234 1838 2234 
L 1294 2234 
L 1294 2753 
L 1863 2753 
Q 2328 2753 2575 2939 
Q 2822 3125 2822 3475 
Q 2822 3834 2567 4026 
Q 2313 4219 1838 4219 
Q 1578 4219 1281 4162 
Q 984 4106 628 3988 
L 628 4550 
Q 988 4650 1302 4700 
Q 1616 4750 1894 4750 
Q 2613 4750 3031 4423 
Q 3450 4097 3450 3541 
Q 3450 3153 3228 2886 
Q 3006 2619 2597 2516 
z
" transform="scale(0.015625)"/>
       </defs>
       <use xlink:href="#DejaVuSans-31"/>
       <use xlink:href="#DejaVuSans-2e" x="63.623047"/>
       <use xlink:href="#DejaVuSans-33" x="95.410156"/>
      </g>
     </g>
    </g>
    <g id="ytick_5">
     <g id="line2d_9">
      <g>
       <use xlink:href="#me362c50a74" x="47.6525" y="65.665289" style="stroke: #000000; stroke-width: 0.8"/>
      </g>
     </g>
     <g id="text_10">
      <!-- 1.4 -->
      <g transform="translate(24.749375 69.464508) scale(0.1 -0.1)">
       <use xlink:href="#DejaVuSans-31"/>
       <use xlink:href="#DejaVuSans-2e" x="63.623047"/>
       <use xlink:href="#DejaVuSans-34" x="95.410156"/>
      </g>
     </g>
    </g>
    <g id="ytick_6">
     <g id="line2d_10">
      <g>
       <use xlink:href="#me362c50a74" x="47.6525" y="23.509474" style="stroke: #000000; stroke-width: 0.8"/>
      </g>
     </g>
     <g id="text_11">
      <!-- 1.5 -->
      <g transform="translate(24.749375 27.308693) scale(0.1 -0.1)">
       <defs>
        <path id="DejaVuSans-35" d="M 691 4666 
L 3169 4666 
L 3169 4134 
L 1269 4134 
L 1269 2991 
Q 1406 3038 1543 3061 
Q 1681 3084 1819 3084 
Q 2600 3084 3056 2656 
Q 3513 2228 3513 1497 
Q 3513 744 3044 326 
Q 2575 -91 1722 -91 
Q 1428 -91 1123 -41 
Q 819 9 494 109 
L 494 744 
Q 775 591 1075 516 
Q 1375 441 1709 441 
Q 2250 441 2565 725 
Q 2881 1009 2881 1497 
Q 2881 1984 2565 2268 
Q 2250 2553 1709 2553 
Q 1456 2553 1204 2497 
Q 953 2441 691 2322 
L 691 4666 
z
" transform="scale(0.015625)"/>
       </defs>
       <use xlink:href="#DejaVuSans-31"/>
       <use xlink:href="#DejaVuSans-2e" x="63.623047"/>
       <use xlink:href="#DejaVuSans-35" x="95.410156"/>
      </g>
     </g>
    </g>
    <g id="text_12">
     <!-- CPI (Cycles Per Instruction) -->
     <g transform="translate(17.837813 234.959437) rotate(-90) scale(0.14 -0.14)">
      <defs>
       <path id="DejaVuSans-43" d="M 4122 4306 
L 4122 3641 
Q 3803 3938 3442 4084 
Q 3081 4231 2675 4231 
Q 1875 4231 1450 3742 
Q 1025 3253 1025 2328 
Q 1025 1406 1450 917 
Q 1875 428 2675 428 
Q 3081 428 3442 575 
Q 3803 722 4122 1019 
L 4122 359 
Q 3791 134 3420 21 
Q 3050 -91 2638 -91 
Q 1578 -91 968 557 
Q 359 1206 359 2328 
Q 359 3453 968 4101 
Q 1578 4750 2638 4750 
Q 3056 4750 3426 4639 
Q 3797 4528 4122 4306 
z
" transform="scale(0.015625)"/>
       <path id="DejaVuSans-50" d="M 1259 4147 
L 1259 2394 
L 2053 2394 
Q 2494 2394 2734 2622 
Q 2975 2850 2975 3272 
Q 2975 3691 2734 3919 
Q 2494 4147 2053 4147 
L 1259 4147 
z
M 628 4666 
L 2053 4666 
Q 2838 4666 3239 4311 
Q 3641 3956 3641 3272 
Q 3641 2581 3239 2228 
Q 2838 1875 2053 1875 
L 1259 1875 
L 1259 0 
L 628 0 
L 628 4666 
z
" transform="scale(0.015625)"/>
       <path id="DejaVuSans-49" d="M 628 4666 
L 1259 4666 
L 1259 0 
L 628 0 
L 628 4666 
z
" transform="scale(0.015625)"/>
       <path id="DejaVuSans-28" d="M 1984 4856 
Q 1566 4138 1362 3434 
Q 1159 2731 1159 2009 
Q 1159 1288 1364 580 
Q 1569 -128 1984 -844 
L 1484 -844 
Q 1016 -109 783 600 
Q 550 1309 550 2009 
Q 550 2706 781 3412 
Q 1013 4119 1484 4856 
L 1984 4856 
z
" transform="scale(0.015625)"/>
       <path id="DejaVuSans-63" d="M 3122 3366 
L 3122 2828 
Q 2878 2963 2633 3030 
Q 2388 3097 2138 3097 
Q 1578 3097 1268 2742 
Q 959 2388 959 1747 
Q 959 1106 1268 751 
Q 1578 397 2138 397 
Q 2388 397 2633 464 
Q 2878 531 3122 666 
L 3122 134 
Q 2881 22 2623 -34 
Q 2366 -91 2075 -91 
Q 1284 -91 818 406 
Q 353 903 353 1747 
Q 353 2603 823 3093 
Q 1294 3584 2113 3584 
Q 2378 3584 2631 3529 
Q 2884 3475 3122 3366 
z
" transform="scale(0.015625)"/>
       <path id="DejaVuSans-6c" d="M 603 4863 
L 1178 4863 
L 1178 0 
L 603 0 
L 603 4863 
z
" transform="scale(0.015625)"/>
       <path id="DejaVuSans-73" d="M 2834 3397 
L 2834 2853 
Q 2591 2978 2328 3040 
Q 2066 3103 1784 3103 
Q 1356 3103 1142 2972 
Q 928 2841 928 2578 
Q 928 2378 1081 2264 
Q 1234 2150 1697 2047 
L 1894 2003 
Q 2506 1872 2764 1633 
Q 3022 1394 3022 966 
Q 3022 478 2636 193 
Q 2250 -91 1575 -91 
Q 1294 -91 989 -36 
Q 684 19 347 128 
L 347 722 
Q 666 556 975 473 
Q 1284 391 1588 391 
Q 1994 391 2212 530 
Q 2431 669 2431 922 
Q 2431 1156 2273 1281 
Q 2116 1406 1581 1522 
L 1381 1569 
Q 847 1681 609 1914 
Q 372 2147 372 2553 
Q 372 3047 722 3315 
Q 1072 3584 1716 3584 
Q 2034 3584 2315 3537 
Q 2597 3491 2834 3397 
z
" transform="scale(0.015625)"/>
       <path id="DejaVuSans-74" d="M 1172 4494 
L 1172 3500 
L 2356 3500 
L 2356 3053 
L 1172 3053 
L 1172 1153 
Q 1172 725 1289 603 
Q 1406 481 1766 481 
L 2356 481 
L 2356 0 
L 1766 0 
Q 1100 0 847 248 
Q 594 497 594 1153 
L 594 3053 
L 172 3053 
L 172 3500 
L 594 3500 
L 594 4494 
L 1172 4494 
z
" transform="scale(0.015625)"/>
       <path id="DejaVuSans-75" d="M 544 1381 
L 544 3500 
L 1119 3500 
L 1119 1403 
Q 1119 906 1312 657 
Q 1506 409 1894 409 
Q 2359 409 2629 706 
Q 2900 1003 2900 1516 
L 2900 3500 
L 3475 3500 
L 3475 0 
L 2900 0 
L 2900 538 
Q 2691 219 2414 64 
Q 2138 -91 1772 -91 
Q 1169 -91 856 284 
Q 544 659 544 1381 
z
M 1991 3584 
L 1991 3584 
z
" transform="scale(0.015625)"/>
       <path id="DejaVuSans-69" d="M 603 3500 
L 1178 3500 
L 1178 0 
L 603 0 
L 603 3500 
z
M 603 4863 
L 1178 4863 
L 1178 4134 
L 603 4134 
L 603 4863 
z
" transform="scale(0.015625)"/>
       <path id="DejaVuSans-6f" d="M 1959 3097 
Q 1497 3097 1228 2736 
Q 959 2375 959 1747 
Q 959 1119 1226 758 
Q 1494 397 1959 397 
Q 2419 397 2687 759 
Q 2956 1122 2956 1747 
Q 2956 2369 2687 2733 
Q 2419 3097 1959 3097 
z
M 1959 3584 
Q 2709 3584 3137 3096 
Q 3566 2609 3566 1747 
Q 3566 888 3137 398 
Q 2709 -91 1959 -91 
Q 1206 -91 779 398 
Q 353 888 353 1747 
Q 353 2609 779 3096 
Q 1206 3584 1959 3584 
z
" transform="scale(0.015625)"/>
       <path id="DejaVuSans-29" d="M 513 4856 
L 1013 4856 
Q 1481 4119 1714 3412 
Q 1947 2706 1947 2009 
Q 1947 1309 1714 600 
Q 1481 -109 1013 -844 
L 513 -844 
Q 928 -128 1133 580 
Q 1338 1288 1338 2009 
Q 1338 2731 1133 3434 
Q 928 4138 513 4856 
z
" transform="scale(0.015625)"/>
      </defs>
      <use xlink:href="#DejaVuSans-43"/>
      <use xlink:href="#DejaVuSans-50" x="69.824219"/>
      <use xlink:href="#DejaVuSans-49" x="130.126953"/>
      <use xlink:href="#DejaVuSans-20" x="159.619141"/>
      <use xlink:href="#DejaVuSans-28" x="191.40625"/>
      <use xlink:href="#DejaVuSans-43" x="230.419922"/>
      <use xlink:href="#DejaVuSans-79" x="300.244141"/>
      <use xlink:href="#DejaVuSans-63" x="359.423828"/>
      <use xlink:href="#DejaVuSans-6c" x="414.404297"/>
      <use xlink:href="#DejaVuSans-65" x="442.1875"/>
      <use xlink:href="#DejaVuSans-73" x="503.710938"/>
      <use xlink:href="#DejaVuSans-20" x="555.810547"/>
      <use xlink:href="#DejaVuSans-50" x="587.597656"/>
      <use xlink:href="#DejaVuSans-65" x="644.275391"/>
      <use xlink:href="#DejaVuSans-72" x="705.798828"/>
      <use xlink:href="#DejaVuSans-20" x="746.912109"/>
      <use xlink:href="#DejaVuSans-49" x="778.699219"/>
      <use xlink:href="#DejaVuSans-6e" x="808.191406"/>
      <use xlink:href="#DejaVuSans-73" x="871.570312"/>
      <use xlink:href="#DejaVuSans-74" x="923.669922"/>
      <use xlink:href="#DejaVuSans-72" x="962.878906"/>
      <use xlink:href="#DejaVuSans-75" x="1003.992188"/>
      <use xlink:href="#DejaVuSans-63" x="1067.371094"/>
      <use xlink:href="#DejaVuSans-74" x="1122.351562"/>
      <use xlink:href="#DejaVuSans-69" x="1161.560547"/>
      <use xlink:href="#DejaVuSans-6f" x="1189.34375"/>
      <use xlink:href="#DejaVuSans-6e" x="1250.525391"/>
      <use xlink:href="#DejaVuSans-29" x="1313.904297"/>
     </g>
    </g>
   </g>
   <g id="patch_3">
    <path d="M 47.6525 273.312 
L 47.6525 7.2 
" style="fill: none; stroke: #000000; stroke-width: 0.8; stroke-linejoin: miter; stroke-linecap: square"/>
   </g>
   <g id="patch_4">
    <path d="M 404.7725 273.312 
L 404.7725 7.2 
" style="fill: none; stroke: #000000; stroke-width: 0.8; stroke-linejoin: miter; stroke-linecap: square"/>
   </g>
   <g id="patch_5">
    <path d="M 47.6525 273.312 
L 404.7725 273.312 
" style="fill: none; stroke: #000000; stroke-width: 0.8; stroke-linejoin: miter; stroke-linecap: square"/>
   </g>
   <g id="patch_6">
    <path d="M 47.6525 7.2 
L 404.7725 7.2 
" style="fill: none; stroke: #000000; stroke-width: 0.8; stroke-linejoin: miter; stroke-linecap: square"/>
   </g>
   <g id="PathCollection_1">
    <defs>
     <path id="m7ba260ad1f" d="M 0 3.872983 
C 1.027127 3.872983 2.012324 3.464901 2.738613 2.738613 
C 3.464901 2.012324 3.872983 1.027127 3.872983 0 
C 3.872983 -1.027127 3.464901 -2.012324 2.738613 -2.738613 
C 2.012324 -3.464901 1.027127 -3.872983 0 -3.872983 
C -1.027127 -3.872983 -2.012324 -3.464901 -2.738613 -2.738613 
C -3.464901 -2.012324 -3.872983 -1.027127 -3.872983 0 
C -3.872983 1.027127 -3.464901 2.012324 -2.738613 2.738613 
C -2.012324 3.464901 -1.027127 3.872983 0 3.872983 
z
" style="stroke: #000000"/>
    </defs>
    <g>
     <use xlink:href="#m7ba260ad1f" x="224.71572" y="19.317921" style="fill: #bfbf00; stroke: #000000"/>
     <use xlink:href="#m7ba260ad1f" x="224.744509" y="19.296" style="fill: #bfbf00; stroke: #000000"/>
     <use xlink:href="#m7ba260ad1f" x="224.725173" y="19.303166" style="fill: #bfbf00; stroke: #000000"/>
     <use xlink:href="#m7ba260ad1f" x="224.744069" y="19.296422" style="fill: #bfbf00; stroke: #000000"/>
     <use xlink:href="#m7ba260ad1f" x="79.411429" y="200.391482" style="fill: #bfbf00; stroke: #000000"/>
     <use xlink:href="#m7ba260ad1f" x="79.563414" y="200.239299" style="fill: #bfbf00; stroke: #000000"/>
     <use xlink:href="#m7ba260ad1f" x="79.432689" y="200.365345" style="fill: #bfbf00; stroke: #000000"/>
     <use xlink:href="#m7ba260ad1f" x="79.404158" y="200.401599" style="fill: #bfbf00; stroke: #000000"/>
     <use xlink:href="#m7ba260ad1f" x="78.498708" y="211.03709" style="fill: #bfbf00; stroke: #000000"/>
     <use xlink:href="#m7ba260ad1f" x="78.573954" y="211.015169" style="fill: #bfbf00; stroke: #000000"/>
     <use xlink:href="#m7ba260ad1f" x="78.506065" y="211.030766" style="fill: #bfbf00; stroke: #000000"/>
     <use xlink:href="#m7ba260ad1f" x="78.457954" y="211.079246" style="fill: #bfbf00; stroke: #000000"/>
     <use xlink:href="#m7ba260ad1f" x="109.323512" y="212.797095" style="fill: #bfbf00; stroke: #000000"/>
     <use xlink:href="#m7ba260ad1f" x="109.432028" y="212.709411" style="fill: #bfbf00; stroke: #000000"/>
     <use xlink:href="#m7ba260ad1f" x="109.306341" y="212.807634" style="fill: #bfbf00; stroke: #000000"/>
     <use xlink:href="#m7ba260ad1f" x="109.279076" y="212.839672" style="fill: #bfbf00; stroke: #000000"/>
     <use xlink:href="#m7ba260ad1f" x="226.568797" y="63.630006" style="fill: #bfbf00; stroke: #000000"/>
     <use xlink:href="#m7ba260ad1f" x="226.570384" y="63.623683" style="fill: #bfbf00; stroke: #000000"/>
     <use xlink:href="#m7ba260ad1f" x="226.570384" y="63.623683" style="fill: #bfbf00; stroke: #000000"/>
     <use xlink:href="#m7ba260ad1f" x="226.569744" y="63.629163" style="fill: #bfbf00; stroke: #000000"/>
     <use xlink:href="#m7ba260ad1f" x="65.604538" y="248.984069" style="fill: #bfbf00; stroke: #000000"/>
     <use xlink:href="#m7ba260ad1f" x="65.778493" y="248.828514" style="fill: #bfbf00; stroke: #000000"/>
     <use xlink:href="#m7ba260ad1f" x="65.598396" y="248.992078" style="fill: #bfbf00; stroke: #000000"/>
     <use xlink:href="#m7ba260ad1f" x="65.608198" y="248.981118" style="fill: #bfbf00; stroke: #000000"/>
     <use xlink:href="#m7ba260ad1f" x="63.904864" y="259.709773" style="fill: #bfbf00; stroke: #000000"/>
     <use xlink:href="#m7ba260ad1f" x="64.083769" y="259.589207" style="fill: #bfbf00; stroke: #000000"/>
     <use xlink:href="#m7ba260ad1f" x="63.916692" y="259.697548" style="fill: #bfbf00; stroke: #000000"/>
     <use xlink:href="#m7ba260ad1f" x="63.885227" y="259.716518" style="fill: #bfbf00; stroke: #000000"/>
     <use xlink:href="#m7ba260ad1f" x="94.871545" y="261.178903" style="fill: #bfbf00; stroke: #000000"/>
     <use xlink:href="#m7ba260ad1f" x="95.003637" y="261.073092" style="fill: #bfbf00; stroke: #000000"/>
     <use xlink:href="#m7ba260ad1f" x="94.865644" y="261.175109" style="fill: #bfbf00; stroke: #000000"/>
     <use xlink:href="#m7ba260ad1f" x="94.876678" y="261.175109" style="fill: #bfbf00; stroke: #000000"/>
     <use xlink:href="#m7ba260ad1f" x="222.133248" y="29.801229" style="fill: #bfbf00; stroke: #000000"/>
     <use xlink:href="#m7ba260ad1f" x="222.141706" y="29.79322" style="fill: #bfbf00; stroke: #000000"/>
     <use xlink:href="#m7ba260ad1f" x="222.150609" y="29.784788" style="fill: #bfbf00; stroke: #000000"/>
     <use xlink:href="#m7ba260ad1f" x="222.129733" y="29.810082" style="fill: #bfbf00; stroke: #000000"/>
     <use xlink:href="#m7ba260ad1f" x="75.088968" y="210.841908" style="fill: #bfbf00; stroke: #000000"/>
     <use xlink:href="#m7ba260ad1f" x="75.329444" y="210.597826" style="fill: #bfbf00; stroke: #000000"/>
     <use xlink:href="#m7ba260ad1f" x="75.139835" y="210.787106" style="fill: #bfbf00; stroke: #000000"/>
     <use xlink:href="#m7ba260ad1f" x="75.087492" y="210.836006" style="fill: #bfbf00; stroke: #000000"/>
     <use xlink:href="#m7ba260ad1f" x="74.175628" y="221.331118" style="fill: #bfbf00; stroke: #000000"/>
     <use xlink:href="#m7ba260ad1f" x="74.312511" y="221.239219" style="fill: #bfbf00; stroke: #000000"/>
     <use xlink:href="#m7ba260ad1f" x="74.232317" y="221.279688" style="fill: #bfbf00; stroke: #000000"/>
     <use xlink:href="#m7ba260ad1f" x="74.183228" y="221.33154" style="fill: #bfbf00; stroke: #000000"/>
     <use xlink:href="#m7ba260ad1f" x="104.998403" y="223.086065" style="fill: #bfbf00; stroke: #000000"/>
     <use xlink:href="#m7ba260ad1f" x="105.087457" y="223.031262" style="fill: #bfbf00; stroke: #000000"/>
     <use xlink:href="#m7ba260ad1f" x="104.942903" y="223.152671" style="fill: #bfbf00; stroke: #000000"/>
     <use xlink:href="#m7ba260ad1f" x="104.971611" y="223.120211" style="fill: #bfbf00; stroke: #000000"/>
     <use xlink:href="#m7ba260ad1f" x="226.01367" y="39.266474" style="fill: #bfbf00; stroke: #000000"/>
     <use xlink:href="#m7ba260ad1f" x="226.011521" y="39.279121" style="fill: #bfbf00; stroke: #000000"/>
     <use xlink:href="#m7ba260ad1f" x="226.007015" y="39.267318" style="fill: #bfbf00; stroke: #000000"/>
     <use xlink:href="#m7ba260ad1f" x="225.97895" y="39.303993" style="fill: #bfbf00; stroke: #000000"/>
     <use xlink:href="#m7ba260ad1f" x="75.298196" y="220.51456" style="fill: #bfbf00; stroke: #000000"/>
     <use xlink:href="#m7ba260ad1f" x="75.529125" y="220.312212" style="fill: #bfbf00; stroke: #000000"/>
     <use xlink:href="#m7ba260ad1f" x="75.31712" y="220.498541" style="fill: #bfbf00; stroke: #000000"/>
     <use xlink:href="#m7ba260ad1f" x="75.310366" y="220.51456" style="fill: #bfbf00; stroke: #000000"/>
     <use xlink:href="#m7ba260ad1f" x="73.891043" y="231.359144" style="fill: #bfbf00; stroke: #000000"/>
     <use xlink:href="#m7ba260ad1f" x="74.104847" y="231.185462" style="fill: #bfbf00; stroke: #000000"/>
     <use xlink:href="#m7ba260ad1f" x="73.92948" y="231.320782" style="fill: #bfbf00; stroke: #000000"/>
     <use xlink:href="#m7ba260ad1f" x="73.900601" y="231.354507" style="fill: #bfbf00; stroke: #000000"/>
     <use xlink:href="#m7ba260ad1f" x="104.701868" y="233.08163" style="fill: #bfbf00; stroke: #000000"/>
     <use xlink:href="#m7ba260ad1f" x="104.814342" y="232.988044" style="fill: #bfbf00; stroke: #000000"/>
     <use xlink:href="#m7ba260ad1f" x="104.718675" y="233.068562" style="fill: #bfbf00; stroke: #000000"/>
     <use xlink:href="#m7ba260ad1f" x="104.710795" y="233.068562" style="fill: #bfbf00; stroke: #000000"/>
     <use xlink:href="#m7ba260ad1f" x="246.481053" y="19.89925" style="fill: #bfbf00; stroke: #000000"/>
     <use xlink:href="#m7ba260ad1f" x="246.448772" y="19.9237" style="fill: #bfbf00; stroke: #000000"/>
     <use xlink:href="#m7ba260ad1f" x="246.491958" y="19.889132" style="fill: #bfbf00; stroke: #000000"/>
     <use xlink:href="#m7ba260ad1f" x="246.474256" y="19.911053" style="fill: #bfbf00; stroke: #000000"/>
     <use xlink:href="#m7ba260ad1f" x="94.817184" y="200.942037" style="fill: #bfbf00; stroke: #000000"/>
     <use xlink:href="#m7ba260ad1f" x="95.021194" y="200.739267" style="fill: #bfbf00; stroke: #000000"/>
     <use xlink:href="#m7ba260ad1f" x="94.756193" y="201.004849" style="fill: #bfbf00; stroke: #000000"/>
     <use xlink:href="#m7ba260ad1f" x="94.719933" y="201.046583" style="fill: #bfbf00; stroke: #000000"/>
     <use xlink:href="#m7ba260ad1f" x="93.44414" y="211.664368" style="fill: #bfbf00; stroke: #000000"/>
     <use xlink:href="#m7ba260ad1f" x="93.57498" y="211.589752" style="fill: #bfbf00; stroke: #000000"/>
     <use xlink:href="#m7ba260ad1f" x="93.467288" y="211.641604" style="fill: #bfbf00; stroke: #000000"/>
     <use xlink:href="#m7ba260ad1f" x="93.460816" y="211.650457" style="fill: #bfbf00; stroke: #000000"/>
     <use xlink:href="#m7ba260ad1f" x="124.211913" y="213.422687" style="fill: #bfbf00; stroke: #000000"/>
     <use xlink:href="#m7ba260ad1f" x="124.360392" y="213.309288" style="fill: #bfbf00; stroke: #000000"/>
     <use xlink:href="#m7ba260ad1f" x="124.200498" y="213.444608" style="fill: #bfbf00; stroke: #000000"/>
     <use xlink:href="#m7ba260ad1f" x="124.199961" y="213.44503" style="fill: #bfbf00; stroke: #000000"/>
     <use xlink:href="#m7ba260ad1f" x="247.4055" y="63.664996" style="fill: #bfbf00; stroke: #000000"/>
     <use xlink:href="#m7ba260ad1f" x="247.397539" y="63.667104" style="fill: #bfbf00; stroke: #000000"/>
     <use xlink:href="#m7ba260ad1f" x="247.399982" y="63.664996" style="fill: #bfbf00; stroke: #000000"/>
     <use xlink:href="#m7ba260ad1f" x="247.414296" y="63.657408" style="fill: #bfbf00; stroke: #000000"/>
     <use xlink:href="#m7ba260ad1f" x="79.902531" y="249.034234" style="fill: #bfbf00; stroke: #000000"/>
     <use xlink:href="#m7ba260ad1f" x="80.096948" y="248.858023" style="fill: #bfbf00; stroke: #000000"/>
     <use xlink:href="#m7ba260ad1f" x="79.864274" y="249.055312" style="fill: #bfbf00; stroke: #000000"/>
     <use xlink:href="#m7ba260ad1f" x="79.914333" y="249.022009" style="fill: #bfbf00; stroke: #000000"/>
     <use xlink:href="#m7ba260ad1f" x="77.785071" y="259.774693" style="fill: #bfbf00; stroke: #000000"/>
     <use xlink:href="#m7ba260ad1f" x="77.966022" y="259.655813" style="fill: #bfbf00; stroke: #000000"/>
     <use xlink:href="#m7ba260ad1f" x="77.837006" y="259.740546" style="fill: #bfbf00; stroke: #000000"/>
     <use xlink:href="#m7ba260ad1f" x="77.821214" y="259.749821" style="fill: #bfbf00; stroke: #000000"/>
     <use xlink:href="#m7ba260ad1f" x="108.74421" y="261.216" style="fill: #bfbf00; stroke: #000000"/>
     <use xlink:href="#m7ba260ad1f" x="108.868919" y="261.118199" style="fill: #bfbf00; stroke: #000000"/>
     <use xlink:href="#m7ba260ad1f" x="108.757834" y="261.208834" style="fill: #bfbf00; stroke: #000000"/>
     <use xlink:href="#m7ba260ad1f" x="108.752735" y="261.215157" style="fill: #bfbf00; stroke: #000000"/>
     <use xlink:href="#m7ba260ad1f" x="243.517141" y="30.397734" style="fill: #bfbf00; stroke: #000000"/>
     <use xlink:href="#m7ba260ad1f" x="243.523429" y="30.397312" style="fill: #bfbf00; stroke: #000000"/>
     <use xlink:href="#m7ba260ad1f" x="243.505336" y="30.419233" style="fill: #bfbf00; stroke: #000000"/>
     <use xlink:href="#m7ba260ad1f" x="243.53447" y="30.387195" style="fill: #bfbf00; stroke: #000000"/>
     <use xlink:href="#m7ba260ad1f" x="90.202606" y="211.313632" style="fill: #bfbf00; stroke: #000000"/>
     <use xlink:href="#m7ba260ad1f" x="90.293077" y="211.255035" style="fill: #bfbf00; stroke: #000000"/>
     <use xlink:href="#m7ba260ad1f" x="90.153433" y="211.368856" style="fill: #bfbf00; stroke: #000000"/>
     <use xlink:href="#m7ba260ad1f" x="90.17099" y="211.34019" style="fill: #bfbf00; stroke: #000000"/>
     <use xlink:href="#m7ba260ad1f" x="88.808411" y="221.957554" style="fill: #bfbf00; stroke: #000000"/>
     <use xlink:href="#m7ba260ad1f" x="88.930853" y="221.863546" style="fill: #bfbf00; stroke: #000000"/>
     <use xlink:href="#m7ba260ad1f" x="88.833949" y="221.91329" style="fill: #bfbf00; stroke: #000000"/>
     <use xlink:href="#m7ba260ad1f" x="88.835778" y="221.895163" style="fill: #bfbf00; stroke: #000000"/>
     <use xlink:href="#m7ba260ad1f" x="119.528781" y="223.719245" style="fill: #bfbf00; stroke: #000000"/>
     <use xlink:href="#m7ba260ad1f" x="119.696927" y="223.586033" style="fill: #bfbf00; stroke: #000000"/>
     <use xlink:href="#m7ba260ad1f" x="119.556544" y="223.713343" style="fill: #bfbf00; stroke: #000000"/>
     <use xlink:href="#m7ba260ad1f" x="119.488859" y="223.77194" style="fill: #bfbf00; stroke: #000000"/>
     <use xlink:href="#m7ba260ad1f" x="247.132492" y="39.825882" style="fill: #bfbf00; stroke: #000000"/>
     <use xlink:href="#m7ba260ad1f" x="247.134264" y="39.819137" style="fill: #bfbf00; stroke: #000000"/>
     <use xlink:href="#m7ba260ad1f" x="247.17428" y="39.788363" style="fill: #bfbf00; stroke: #000000"/>
     <use xlink:href="#m7ba260ad1f" x="247.123207" y="39.839372" style="fill: #bfbf00; stroke: #000000"/>
     <use xlink:href="#m7ba260ad1f" x="90.062426" y="221.046567" style="fill: #bfbf00; stroke: #000000"/>
     <use xlink:href="#m7ba260ad1f" x="90.233023" y="220.886374" style="fill: #bfbf00; stroke: #000000"/>
     <use xlink:href="#m7ba260ad1f" x="90.075301" y="221.032655" style="fill: #bfbf00; stroke: #000000"/>
     <use xlink:href="#m7ba260ad1f" x="90.040883" y="221.064272" style="fill: #bfbf00; stroke: #000000"/>
     <use xlink:href="#m7ba260ad1f" x="88.225717" y="231.935414" style="fill: #bfbf00; stroke: #000000"/>
     <use xlink:href="#m7ba260ad1f" x="88.459266" y="231.744448" style="fill: #bfbf00; stroke: #000000"/>
     <use xlink:href="#m7ba260ad1f" x="88.244798" y="231.910542" style="fill: #bfbf00; stroke: #000000"/>
     <use xlink:href="#m7ba260ad1f" x="88.256369" y="231.907591" style="fill: #bfbf00; stroke: #000000"/>
     <use xlink:href="#m7ba260ad1f" x="119.039997" y="233.590029" style="fill: #bfbf00; stroke: #000000"/>
     <use xlink:href="#m7ba260ad1f" x="119.165309" y="233.492228" style="fill: #bfbf00; stroke: #000000"/>
     <use xlink:href="#m7ba260ad1f" x="118.999433" y="233.629656" style="fill: #bfbf00; stroke: #000000"/>
     <use xlink:href="#m7ba260ad1f" x="119.006641" y="233.621225" style="fill: #bfbf00; stroke: #000000"/>
     <use xlink:href="#m7ba260ad1f" x="298.181392" y="19.89925" style="fill: #bfbf00; stroke: #000000"/>
     <use xlink:href="#m7ba260ad1f" x="298.147124" y="19.9237" style="fill: #bfbf00; stroke: #000000"/>
     <use xlink:href="#m7ba260ad1f" x="298.193119" y="19.889132" style="fill: #bfbf00; stroke: #000000"/>
     <use xlink:href="#m7ba260ad1f" x="298.173635" y="19.911053" style="fill: #bfbf00; stroke: #000000"/>
     <use xlink:href="#m7ba260ad1f" x="131.799367" y="200.942037" style="fill: #bfbf00; stroke: #000000"/>
     <use xlink:href="#m7ba260ad1f" x="132.024103" y="200.739267" style="fill: #bfbf00; stroke: #000000"/>
     <use xlink:href="#m7ba260ad1f" x="131.73327" y="201.004849" style="fill: #bfbf00; stroke: #000000"/>
     <use xlink:href="#m7ba260ad1f" x="131.697856" y="201.046583" style="fill: #bfbf00; stroke: #000000"/>
     <use xlink:href="#m7ba260ad1f" x="129.558774" y="211.664368" style="fill: #bfbf00; stroke: #000000"/>
     <use xlink:href="#m7ba260ad1f" x="129.691541" y="211.589752" style="fill: #bfbf00; stroke: #000000"/>
     <use xlink:href="#m7ba260ad1f" x="129.579633" y="211.641604" style="fill: #bfbf00; stroke: #000000"/>
     <use xlink:href="#m7ba260ad1f" x="129.572441" y="211.650457" style="fill: #bfbf00; stroke: #000000"/>
     <use xlink:href="#m7ba260ad1f" x="160.183585" y="213.422687" style="fill: #bfbf00; stroke: #000000"/>
     <use xlink:href="#m7ba260ad1f" x="160.33716" y="213.309288" style="fill: #bfbf00; stroke: #000000"/>
     <use xlink:href="#m7ba260ad1f" x="160.170388" y="213.444608" style="fill: #bfbf00; stroke: #000000"/>
     <use xlink:href="#m7ba260ad1f" x="160.165695" y="213.44503" style="fill: #bfbf00; stroke: #000000"/>
     <use xlink:href="#m7ba260ad1f" x="295.547835" y="63.664996" style="fill: #bfbf00; stroke: #000000"/>
     <use xlink:href="#m7ba260ad1f" x="295.539702" y="63.667104" style="fill: #bfbf00; stroke: #000000"/>
     <use xlink:href="#m7ba260ad1f" x="295.542316" y="63.664996" style="fill: #bfbf00; stroke: #000000"/>
     <use xlink:href="#m7ba260ad1f" x="295.562765" y="63.657408" style="fill: #bfbf00; stroke: #000000"/>
     <use xlink:href="#m7ba260ad1f" x="112.974984" y="249.034234" style="fill: #bfbf00; stroke: #000000"/>
     <use xlink:href="#m7ba260ad1f" x="113.187519" y="248.858023" style="fill: #bfbf00; stroke: #000000"/>
     <use xlink:href="#m7ba260ad1f" x="112.938804" y="249.055312" style="fill: #bfbf00; stroke: #000000"/>
     <use xlink:href="#m7ba260ad1f" x="112.991571" y="249.022009" style="fill: #bfbf00; stroke: #000000"/>
     <use xlink:href="#m7ba260ad1f" x="109.988053" y="259.774693" style="fill: #bfbf00; stroke: #000000"/>
     <use xlink:href="#m7ba260ad1f" x="110.174978" y="259.655813" style="fill: #bfbf00; stroke: #000000"/>
     <use xlink:href="#m7ba260ad1f" x="110.042764" y="259.740546" style="fill: #bfbf00; stroke: #000000"/>
     <use xlink:href="#m7ba260ad1f" x="110.026218" y="259.749821" style="fill: #bfbf00; stroke: #000000"/>
     <use xlink:href="#m7ba260ad1f" x="140.826328" y="261.216" style="fill: #bfbf00; stroke: #000000"/>
     <use xlink:href="#m7ba260ad1f" x="140.962666" y="261.118199" style="fill: #bfbf00; stroke: #000000"/>
     <use xlink:href="#m7ba260ad1f" x="140.844212" y="261.208834" style="fill: #bfbf00; stroke: #000000"/>
     <use xlink:href="#m7ba260ad1f" x="140.834921" y="261.215157" style="fill: #bfbf00; stroke: #000000"/>
     <use xlink:href="#m7ba260ad1f" x="294.363989" y="30.397734" style="fill: #bfbf00; stroke: #000000"/>
     <use xlink:href="#m7ba260ad1f" x="294.37614" y="30.397312" style="fill: #bfbf00; stroke: #000000"/>
     <use xlink:href="#m7ba260ad1f" x="294.350437" y="30.419233" style="fill: #bfbf00; stroke: #000000"/>
     <use xlink:href="#m7ba260ad1f" x="294.382175" y="30.387195" style="fill: #bfbf00; stroke: #000000"/>
     <use xlink:href="#m7ba260ad1f" x="126.341615" y="211.313632" style="fill: #bfbf00; stroke: #000000"/>
     <use xlink:href="#m7ba260ad1f" x="126.436849" y="211.255035" style="fill: #bfbf00; stroke: #000000"/>
     <use xlink:href="#m7ba260ad1f" x="126.292094" y="211.368856" style="fill: #bfbf00; stroke: #000000"/>
     <use xlink:href="#m7ba260ad1f" x="126.30784" y="211.34019" style="fill: #bfbf00; stroke: #000000"/>
     <use xlink:href="#m7ba260ad1f" x="124.082105" y="221.957554" style="fill: #bfbf00; stroke: #000000"/>
     <use xlink:href="#m7ba260ad1f" x="124.21219" y="221.863546" style="fill: #bfbf00; stroke: #000000"/>
     <use xlink:href="#m7ba260ad1f" x="124.111241" y="221.91329" style="fill: #bfbf00; stroke: #000000"/>
     <use xlink:href="#m7ba260ad1f" x="124.118589" y="221.895163" style="fill: #bfbf00; stroke: #000000"/>
     <use xlink:href="#m7ba260ad1f" x="154.659256" y="223.719245" style="fill: #bfbf00; stroke: #000000"/>
     <use xlink:href="#m7ba260ad1f" x="154.838232" y="223.586033" style="fill: #bfbf00; stroke: #000000"/>
     <use xlink:href="#m7ba260ad1f" x="154.691526" y="223.713343" style="fill: #bfbf00; stroke: #000000"/>
     <use xlink:href="#m7ba260ad1f" x="154.61505" y="223.77194" style="fill: #bfbf00; stroke: #000000"/>
     <use xlink:href="#m7ba260ad1f" x="297.212864" y="39.825882" style="fill: #bfbf00; stroke: #000000"/>
     <use xlink:href="#m7ba260ad1f" x="297.215184" y="39.819137" style="fill: #bfbf00; stroke: #000000"/>
     <use xlink:href="#m7ba260ad1f" x="297.257702" y="39.788363" style="fill: #bfbf00; stroke: #000000"/>
     <use xlink:href="#m7ba260ad1f" x="297.202483" y="39.839372" style="fill: #bfbf00; stroke: #000000"/>
     <use xlink:href="#m7ba260ad1f" x="125.414233" y="221.046567" style="fill: #bfbf00; stroke: #000000"/>
     <use xlink:href="#m7ba260ad1f" x="125.601907" y="220.886374" style="fill: #bfbf00; stroke: #000000"/>
     <use xlink:href="#m7ba260ad1f" x="125.428239" y="221.032655" style="fill: #bfbf00; stroke: #000000"/>
     <use xlink:href="#m7ba260ad1f" x="125.395301" y="221.064272" style="fill: #bfbf00; stroke: #000000"/>
     <use xlink:href="#m7ba260ad1f" x="122.688245" y="231.935414" style="fill: #bfbf00; stroke: #000000"/>
     <use xlink:href="#m7ba260ad1f" x="122.93732" y="231.744448" style="fill: #bfbf00; stroke: #000000"/>
     <use xlink:href="#m7ba260ad1f" x="122.713299" y="231.910542" style="fill: #bfbf00; stroke: #000000"/>
     <use xlink:href="#m7ba260ad1f" x="122.72116" y="231.907591" style="fill: #bfbf00; stroke: #000000"/>
     <use xlink:href="#m7ba260ad1f" x="153.371946" y="233.590029" style="fill: #bfbf00; stroke: #000000"/>
     <use xlink:href="#m7ba260ad1f" x="153.501274" y="233.492228" style="fill: #bfbf00; stroke: #000000"/>
     <use xlink:href="#m7ba260ad1f" x="153.324226" y="233.629656" style="fill: #bfbf00; stroke: #000000"/>
     <use xlink:href="#m7ba260ad1f" x="153.332119" y="233.621225" style="fill: #bfbf00; stroke: #000000"/>
     <use xlink:href="#m7ba260ad1f" x="388.526608" y="19.89925" style="fill: #bfbf00; stroke: #000000"/>
     <use xlink:href="#m7ba260ad1f" x="388.488866" y="19.9237" style="fill: #bfbf00; stroke: #000000"/>
     <use xlink:href="#m7ba260ad1f" x="388.539773" y="19.889132" style="fill: #bfbf00; stroke: #000000"/>
     <use xlink:href="#m7ba260ad1f" x="388.517175" y="19.911053" style="fill: #bfbf00; stroke: #000000"/>
     <use xlink:href="#m7ba260ad1f" x="196.429167" y="200.942037" style="fill: #bfbf00; stroke: #000000"/>
     <use xlink:href="#m7ba260ad1f" x="196.678469" y="200.739267" style="fill: #bfbf00; stroke: #000000"/>
     <use xlink:href="#m7ba260ad1f" x="196.354146" y="201.004849" style="fill: #bfbf00; stroke: #000000"/>
     <use xlink:href="#m7ba260ad1f" x="196.308564" y="201.046583" style="fill: #bfbf00; stroke: #000000"/>
     <use xlink:href="#m7ba260ad1f" x="192.661078" y="211.664368" style="fill: #bfbf00; stroke: #000000"/>
     <use xlink:href="#m7ba260ad1f" x="192.808584" y="211.589752" style="fill: #bfbf00; stroke: #000000"/>
     <use xlink:href="#m7ba260ad1f" x="192.68931" y="211.641604" style="fill: #bfbf00; stroke: #000000"/>
     <use xlink:href="#m7ba260ad1f" x="192.680861" y="211.650457" style="fill: #bfbf00; stroke: #000000"/>
     <use xlink:href="#m7ba260ad1f" x="223.031972" y="213.422687" style="fill: #bfbf00; stroke: #000000"/>
     <use xlink:href="#m7ba260ad1f" x="223.201656" y="213.309288" style="fill: #bfbf00; stroke: #000000"/>
     <use xlink:href="#m7ba260ad1f" x="223.015661" y="213.444608" style="fill: #bfbf00; stroke: #000000"/>
     <use xlink:href="#m7ba260ad1f" x="223.010907" y="213.44503" style="fill: #bfbf00; stroke: #000000"/>
     <use xlink:href="#m7ba260ad1f" x="379.675516" y="63.664996" style="fill: #bfbf00; stroke: #000000"/>
     <use xlink:href="#m7ba260ad1f" x="379.672602" y="63.667104" style="fill: #bfbf00; stroke: #000000"/>
     <use xlink:href="#m7ba260ad1f" x="379.669997" y="63.664996" style="fill: #bfbf00; stroke: #000000"/>
     <use xlink:href="#m7ba260ad1f" x="379.691524" y="63.657408" style="fill: #bfbf00; stroke: #000000"/>
     <use xlink:href="#m7ba260ad1f" x="170.768376" y="249.034234" style="fill: #bfbf00; stroke: #000000"/>
     <use xlink:href="#m7ba260ad1f" x="171.002152" y="248.858023" style="fill: #bfbf00; stroke: #000000"/>
     <use xlink:href="#m7ba260ad1f" x="170.725411" y="249.055312" style="fill: #bfbf00; stroke: #000000"/>
     <use xlink:href="#m7ba260ad1f" x="170.782909" y="249.022009" style="fill: #bfbf00; stroke: #000000"/>
     <use xlink:href="#m7ba260ad1f" x="166.255613" y="259.774693" style="fill: #bfbf00; stroke: #000000"/>
     <use xlink:href="#m7ba260ad1f" x="166.463119" y="259.655813" style="fill: #bfbf00; stroke: #000000"/>
     <use xlink:href="#m7ba260ad1f" x="166.315175" y="259.740546" style="fill: #bfbf00; stroke: #000000"/>
     <use xlink:href="#m7ba260ad1f" x="166.297312" y="259.749821" style="fill: #bfbf00; stroke: #000000"/>
     <use xlink:href="#m7ba260ad1f" x="196.88913" y="261.216" style="fill: #bfbf00; stroke: #000000"/>
     <use xlink:href="#m7ba260ad1f" x="197.035684" y="261.118199" style="fill: #bfbf00; stroke: #000000"/>
     <use xlink:href="#m7ba260ad1f" x="196.904355" y="261.208834" style="fill: #bfbf00; stroke: #000000"/>
     <use xlink:href="#m7ba260ad1f" x="196.897843" y="261.215157" style="fill: #bfbf00; stroke: #000000"/>
     <use xlink:href="#m7ba260ad1f" x="383.217749" y="30.397734" style="fill: #bfbf00; stroke: #000000"/>
     <use xlink:href="#m7ba260ad1f" x="383.22996" y="30.397312" style="fill: #bfbf00; stroke: #000000"/>
     <use xlink:href="#m7ba260ad1f" x="383.206971" y="30.419233" style="fill: #bfbf00; stroke: #000000"/>
     <use xlink:href="#m7ba260ad1f" x="383.24326" y="30.387195" style="fill: #bfbf00; stroke: #000000"/>
     <use xlink:href="#m7ba260ad1f" x="189.497888" y="211.313632" style="fill: #bfbf00; stroke: #000000"/>
     <use xlink:href="#m7ba260ad1f" x="189.601447" y="211.255035" style="fill: #bfbf00; stroke: #000000"/>
     <use xlink:href="#m7ba260ad1f" x="189.436379" y="211.368856" style="fill: #bfbf00; stroke: #000000"/>
     <use xlink:href="#m7ba260ad1f" x="189.46034" y="211.34019" style="fill: #bfbf00; stroke: #000000"/>
     <use xlink:href="#m7ba260ad1f" x="185.726161" y="221.957554" style="fill: #bfbf00; stroke: #000000"/>
     <use xlink:href="#m7ba260ad1f" x="185.865557" y="221.863546" style="fill: #bfbf00; stroke: #000000"/>
     <use xlink:href="#m7ba260ad1f" x="185.761586" y="221.91329" style="fill: #bfbf00; stroke: #000000"/>
     <use xlink:href="#m7ba260ad1f" x="185.767465" y="221.895163" style="fill: #bfbf00; stroke: #000000"/>
     <use xlink:href="#m7ba260ad1f" x="216.048996" y="223.719245" style="fill: #bfbf00; stroke: #000000"/>
     <use xlink:href="#m7ba260ad1f" x="216.246896" y="223.586033" style="fill: #bfbf00; stroke: #000000"/>
     <use xlink:href="#m7ba260ad1f" x="216.078077" y="223.713343" style="fill: #bfbf00; stroke: #000000"/>
     <use xlink:href="#m7ba260ad1f" x="215.993277" y="223.77194" style="fill: #bfbf00; stroke: #000000"/>
     <use xlink:href="#m7ba260ad1f" x="384.727224" y="39.825882" style="fill: #bfbf00; stroke: #000000"/>
     <use xlink:href="#m7ba260ad1f" x="384.736243" y="39.819137" style="fill: #bfbf00; stroke: #000000"/>
     <use xlink:href="#m7ba260ad1f" x="384.783133" y="39.788363" style="fill: #bfbf00; stroke: #000000"/>
     <use xlink:href="#m7ba260ad1f" x="384.720667" y="39.839372" style="fill: #bfbf00; stroke: #000000"/>
     <use xlink:href="#m7ba260ad1f" x="187.183664" y="221.046567" style="fill: #bfbf00; stroke: #000000"/>
     <use xlink:href="#m7ba260ad1f" x="187.390042" y="220.886374" style="fill: #bfbf00; stroke: #000000"/>
     <use xlink:href="#m7ba260ad1f" x="187.199646" y="221.032655" style="fill: #bfbf00; stroke: #000000"/>
     <use xlink:href="#m7ba260ad1f" x="187.158166" y="221.064272" style="fill: #bfbf00; stroke: #000000"/>
     <use xlink:href="#m7ba260ad1f" x="182.910764" y="231.935414" style="fill: #bfbf00; stroke: #000000"/>
     <use xlink:href="#m7ba260ad1f" x="183.19092" y="231.744448" style="fill: #bfbf00; stroke: #000000"/>
     <use xlink:href="#m7ba260ad1f" x="182.939351" y="231.910542" style="fill: #bfbf00; stroke: #000000"/>
     <use xlink:href="#m7ba260ad1f" x="182.951581" y="231.907591" style="fill: #bfbf00; stroke: #000000"/>
     <use xlink:href="#m7ba260ad1f" x="213.355468" y="233.590029" style="fill: #bfbf00; stroke: #000000"/>
     <use xlink:href="#m7ba260ad1f" x="213.502626" y="233.492228" style="fill: #bfbf00; stroke: #000000"/>
     <use xlink:href="#m7ba260ad1f" x="213.306053" y="233.629656" style="fill: #bfbf00; stroke: #000000"/>
     <use xlink:href="#m7ba260ad1f" x="213.315144" y="233.621225" style="fill: #bfbf00; stroke: #000000"/>
    </g>
   </g>
  </g>
 </g>
</svg>
